<svg width="41" height="25" viewBox="0 0 41 25" fill="none" xmlns="http://www.w3.org/2000/svg">
<path d="M12.3498 1.10531e-09C13.4982 1.21499e-09 14.5583 0.0883392 15.53 0.353357C16.5017 0.530035 17.2968 0.883392 18.0035 1.32509C18.7102 1.76678 19.2402 2.38516 19.5936 3.18021C19.947 3.97526 20.1236 4.947 20.1236 6.00707C20.1236 7.24382 19.8586 8.30389 19.2402 9.09894C18.7102 9.89399 17.8268 10.6007 16.7667 11.1307C18.2685 11.5724 19.4169 12.3675 20.1236 13.4276C20.8303 14.4876 21.272 15.8127 21.272 17.3145C21.272 18.5512 21.007 19.6113 20.5653 20.4947C20.1236 21.3781 19.4169 22.1731 18.6219 22.7032C17.8268 23.2332 16.8551 23.6749 15.795 23.9399C14.7349 24.2049 13.6749 24.3816 12.6148 24.3816L0.777344 24.3816L0.777344 0L12.3498 1.10531e-09ZM11.6431 9.89399C12.6148 9.89399 13.4099 9.62897 14.0282 9.18728C14.6466 8.74558 14.9116 7.95053 14.9116 6.9788C14.9116 6.44876 14.8233 5.91873 14.6466 5.56537C14.4699 5.21201 14.2049 4.947 13.8516 4.68198C13.4982 4.5053 13.1448 4.32862 12.7031 4.24028C12.2614 4.15194 11.8197 4.15194 11.2897 4.15194L6.16604 4.15194L6.16604 9.89399L11.6431 9.89399ZM11.9081 20.318C12.4381 20.318 12.9682 20.2297 13.4099 20.1413C13.8515 20.053 14.2932 19.8763 14.6466 19.6113C15 19.3463 15.265 19.0813 15.53 18.6396C15.7067 18.1979 15.8834 17.6678 15.8834 17.0495C15.8834 15.8127 15.53 14.9293 14.8233 14.311C14.1166 13.7809 13.1448 13.5159 11.9964 13.5159L6.16604 13.5159L6.16604 20.318L11.9081 20.318ZM28.9576 20.2297C29.6643 20.9364 30.7243 21.2898 32.1378 21.2898C33.1095 21.2898 33.9929 21.0247 34.6996 20.583C35.4063 20.053 35.848 19.523 36.0247 18.9929L40.3533 18.9929C39.6466 21.1131 38.5865 22.6148 37.1731 23.5866C35.7597 24.47 34.0812 25 32.0494 25C30.636 25 29.3993 24.735 28.2508 24.2933C27.1024 23.8516 26.219 23.2332 25.424 22.3498C24.6289 21.5548 24.0106 20.583 23.6572 19.4346C23.2155 18.2862 23.0388 17.0495 23.0388 15.636C23.0388 14.311 23.2155 13.0742 23.6572 11.9258C24.0989 10.7774 24.7173 9.80565 25.5123 8.92226C26.3074 8.12721 27.2791 7.42049 28.3392 6.9788C29.4876 6.5371 30.636 6.27208 32.0494 6.27208C33.5512 6.27208 34.8763 6.5371 36.0247 7.15548C37.1731 7.77385 38.0565 8.48057 38.7632 9.54064C39.4699 10.5124 40 11.6608 40.3533 12.8975C40.53 14.1343 40.6183 15.371 40.53 16.7845L27.7208 16.7845C27.7208 18.1979 28.2508 19.523 28.9576 20.2297ZM34.5229 10.9541C33.9046 10.3357 32.9328 9.98233 31.7844 9.98233C30.9894 9.98233 30.371 10.159 29.841 10.424C29.3109 10.689 28.9576 11.0424 28.6042 11.3958C28.2508 11.7491 28.0742 12.1908 27.9858 12.6325C27.8975 13.0742 27.8091 13.4276 27.8091 13.7809L35.7597 13.7809C35.583 12.4558 35.1413 11.5724 34.5229 10.9541ZM26.7491 1.67845L36.6431 1.67845L36.6431 4.0636L26.7491 4.0636L26.7491 1.67845Z" fill="white"/>
</svg>
