<svg width="168" height="105" viewBox="0 0 168 105" fill="none" xmlns="http://www.w3.org/2000/svg">
<path d="M48.6042 4.64228e-09C53.4276 5.10297e-09 57.8799 0.371025 61.9611 1.4841C66.0424 2.22615 69.3816 3.71025 72.3498 5.56537C75.318 7.42049 77.5442 10.0177 79.0283 13.3569C80.5124 16.6961 81.2544 20.7774 81.2544 25.2297C81.2544 30.424 80.1413 34.8763 77.5442 38.2155C75.318 41.5548 71.6078 44.523 67.1555 46.7491C73.4629 48.6042 78.2862 51.9435 81.2544 56.3958C84.2226 60.8481 86.0777 66.4134 86.0777 72.7209C86.0777 77.9152 84.9647 82.3675 83.1095 86.0777C81.2544 89.788 78.2862 93.1272 74.947 95.3534C71.6078 97.5795 67.5265 99.4346 63.0742 100.548C58.6219 101.661 54.1696 102.403 49.7173 102.403L-9.78069e-09 102.403L0 0L48.6042 4.64228e-09ZM45.636 41.5548C49.7173 41.5548 53.0565 40.4417 55.6537 38.5866C58.2509 36.7314 59.364 33.3922 59.364 29.311C59.364 27.0848 58.9929 24.8587 58.2509 23.3746C57.5088 21.8905 56.3958 20.7774 54.9117 19.6643C53.4276 18.9223 51.9435 18.1802 50.0883 17.8092C48.2332 17.4382 46.3781 17.4382 44.1519 17.4382L22.6325 17.4382L22.6325 41.5548L45.636 41.5548ZM46.7491 85.3357C48.9753 85.3357 51.2014 84.9647 53.0565 84.5936C54.9117 84.2226 56.7668 83.4806 58.2509 82.3675C59.735 81.2544 60.8481 80.1413 61.9611 78.2862C62.7032 76.4311 63.4452 74.2049 63.4452 71.6078C63.4452 66.4134 61.9611 62.7032 58.9929 60.106C56.0247 57.8799 51.9435 56.7668 47.1201 56.7668L22.6325 56.7668L22.6325 85.3357L46.7491 85.3357ZM118.357 84.9647C121.325 87.9329 125.777 89.417 131.714 89.417C135.795 89.417 139.505 88.3039 142.473 86.4488C145.442 84.2226 147.297 81.9965 148.039 79.7703L166.219 79.7703C163.251 88.6749 158.799 94.9823 152.862 99.0636C146.926 102.774 139.876 105 131.343 105C125.406 105 120.212 103.887 115.389 102.032C110.565 100.177 106.855 97.5795 103.516 93.8693C100.177 90.53 97.5795 86.4488 96.0954 81.6254C94.2403 76.8021 93.4982 71.6078 93.4982 65.6714C93.4982 60.106 94.2403 54.9117 96.0954 50.0883C97.9505 45.265 100.548 41.1837 103.887 37.4735C107.226 34.1343 111.307 31.1661 115.76 29.311C120.583 27.4558 125.406 26.3428 131.343 26.3428C137.65 26.3428 143.216 27.4558 148.039 30.053C152.862 32.6502 156.572 35.6184 159.541 40.0707C162.509 44.1519 164.735 48.9753 166.219 54.1696C166.961 59.364 167.332 64.5583 166.961 70.4947L113.163 70.4947C113.163 76.4311 115.389 81.9965 118.357 84.9647ZM141.731 46.0071C139.134 43.4099 135.053 41.9258 130.23 41.9258C126.89 41.9258 124.293 42.6678 122.067 43.7809C119.841 44.894 118.357 46.3781 116.873 47.8622C115.389 49.3463 114.647 51.2014 114.276 53.0565C113.905 54.9117 113.534 56.3958 113.534 57.8799L146.926 57.8799C146.184 52.3145 144.329 48.6042 141.731 46.0071ZM109.081 7.04947L150.636 7.04947L150.636 17.0671L109.081 17.0671L109.081 7.04947Z" fill="white"/>
</svg>
