<svg width="40" height="25" viewBox="0 0 40 25" fill="none" xmlns="http://www.w3.org/2000/svg">
<path d="M11.5724 1.10531e-09C12.7208 1.21499e-09 13.7809 0.0883392 14.7527 0.353357C15.7244 0.530035 16.5194 0.883392 17.2262 1.32509C17.9329 1.76678 18.4629 2.38516 18.8163 3.18021C19.1696 3.97526 19.3463 4.947 19.3463 6.00707C19.3463 7.24382 19.0813 8.30389 18.4629 9.09894C17.9329 9.89399 17.0495 10.6007 15.9894 11.1307C17.4912 11.5724 18.6396 12.3675 19.3463 13.4276C20.053 14.4876 20.4947 15.8127 20.4947 17.3145C20.4947 18.5512 20.2297 19.6113 19.788 20.4947C19.3463 21.3781 18.6396 22.1731 17.8445 22.7032C17.0495 23.2332 16.0777 23.6749 15.0177 23.9399C13.9576 24.2049 12.8975 24.3816 11.8375 24.3816L-2.32873e-09 24.3816L0 0L11.5724 1.10531e-09ZM10.8657 9.89399C11.8375 9.89399 12.6325 9.62897 13.2509 9.18728C13.8693 8.74558 14.1343 7.95053 14.1343 6.9788C14.1343 6.44876 14.0459 5.91873 13.8693 5.56537C13.6926 5.21201 13.4276 4.947 13.0742 4.68198C12.7208 4.5053 12.3675 4.32862 11.9258 4.24028C11.4841 4.15194 11.0424 4.15194 10.5124 4.15194L5.38869 4.15194L5.38869 9.89399L10.8657 9.89399ZM11.1307 20.318C11.6608 20.318 12.1908 20.2297 12.6325 20.1413C13.0742 20.053 13.5159 19.8763 13.8693 19.6113C14.2226 19.3463 14.4876 19.0813 14.7527 18.6396C14.9293 18.1979 15.106 17.6678 15.106 17.0495C15.106 15.8127 14.7527 14.9293 14.0459 14.311C13.3392 13.7809 12.3675 13.5159 11.2191 13.5159L5.38869 13.5159L5.38869 20.318L11.1307 20.318ZM28.1802 20.2297C28.8869 20.9364 29.947 21.2898 31.3604 21.2898C32.3322 21.2898 33.2155 21.0247 33.9223 20.583C34.629 20.053 35.0707 19.523 35.2474 18.9929L39.576 18.9929C38.8693 21.1131 37.8092 22.6148 36.3958 23.5866C34.9823 24.47 33.3039 25 31.2721 25C29.8587 25 28.6219 24.735 27.4735 24.2933C26.3251 23.8516 25.4417 23.2332 24.6466 22.3498C23.8516 21.5548 23.2332 20.583 22.8799 19.4346C22.4382 18.2862 22.2615 17.0495 22.2615 15.636C22.2615 14.311 22.4382 13.0742 22.8799 11.9258C23.3216 10.7774 23.9399 9.80565 24.735 8.92226C25.53 8.12721 26.5018 7.42049 27.5618 6.9788C28.7102 6.5371 29.8587 6.27208 31.2721 6.27208C32.7739 6.27208 34.0989 6.5371 35.2474 7.15548C36.3958 7.77385 37.2792 8.48057 37.9859 9.54064C38.6926 10.5124 39.2226 11.6608 39.576 12.8975C39.7527 14.1343 39.841 15.371 39.7527 16.7845L26.9435 16.7845C26.9435 18.1979 27.4735 19.523 28.1802 20.2297ZM33.7456 10.9541C33.1272 10.3357 32.1555 9.98233 31.0071 9.98233C30.212 9.98233 29.5936 10.159 29.0636 10.424C28.5336 10.689 28.1802 11.0424 27.8269 11.3958C27.4735 11.7491 27.2968 12.1908 27.2085 12.6325C27.1201 13.0742 27.0318 13.4276 27.0318 13.7809L34.9823 13.7809C34.8057 12.4558 34.364 11.5724 33.7456 10.9541ZM25.9717 1.67845L35.8657 1.67845L35.8657 4.0636L25.9717 4.0636L25.9717 1.67845Z" fill="#1157FF"/>
</svg>
