<svg width="20" height="20" viewBox="0 0 20 20" fill="none" xmlns="http://www.w3.org/2000/svg">
<g clip-path="url(#clip0_863_352)">
<path fill-rule="evenodd" clip-rule="evenodd" d="M19.6404 17.3279C19.0231 19.2039 16.6044 20.1399 14.8764 19.9839C12.5164 19.7706 9.9484 18.5186 7.99906 17.1399C5.13373 15.1133 2.44973 11.9786 0.885729 8.65194C-0.219605 6.30128 -0.467605 3.41061 1.1764 1.26794C1.7844 0.475944 2.44306 0.0532771 3.42973 0.00394373C4.8004 -0.062723 4.9924 0.721277 5.46306 1.94261C5.81373 2.85594 6.28173 3.78794 6.54306 4.73461C7.0324 6.50128 5.32173 6.57461 5.10573 8.01861C4.9724 8.92928 6.07506 10.1506 6.57373 10.7999C7.53491 12.0646 8.71214 13.1493 10.0511 14.0039C10.8111 14.4826 12.0351 15.3453 12.9044 14.8693C14.2431 14.1359 14.1177 11.8786 15.9884 12.6426C16.9577 13.0373 17.8964 13.6066 18.8217 14.1053C20.2524 14.8746 20.1857 15.6719 19.6404 17.3279C20.0484 16.0906 19.2324 18.5653 19.6404 17.3279Z" fill="#8491A0"/>
</g>
<defs>
<clipPath id="clip0_863_352">
<rect width="20" height="20" fill="white"/>
</clipPath>
</defs>
</svg>
