<svg width="30" height="28" viewBox="0 0 30 28" fill="none" xmlns="http://www.w3.org/2000/svg">
<path d="M19.7716 6.63007C18.8504 6.62948 17.9332 6.75858 17.045 7.01388C16.6943 6.41623 16.2684 5.87053 15.7785 5.39145L17.0584 3.48362C17.1396 3.3626 17.1971 3.22607 17.2277 3.08183C17.2583 2.93759 17.2614 2.78846 17.2368 2.64296C17.2123 2.49746 17.1605 2.35844 17.0846 2.23383C17.0086 2.10923 16.9098 2.00147 16.794 1.91673C16.6781 1.83199 16.5474 1.77191 16.4093 1.73993C16.2713 1.70795 16.1285 1.70469 15.9892 1.73035C15.85 1.756 15.7169 1.81006 15.5976 1.88944C15.4783 1.96882 15.3752 2.07197 15.294 2.19299L14.0141 4.09942C12.9617 3.54427 11.799 3.25532 10.6199 3.25587H10.3858L9.99682 0.965627C9.97641 0.816397 9.92749 0.672977 9.85297 0.543889C9.77844 0.4148 9.67984 0.302679 9.56302 0.214187C9.44619 0.125695 9.31353 0.0626383 9.17292 0.0287643C9.03231 -0.00510975 8.88661 -0.00911004 8.74449 0.0170013C8.60236 0.0431127 8.46671 0.0988027 8.3456 0.180762C8.22449 0.262721 8.12039 0.369278 8.03948 0.494098C7.95856 0.618919 7.9025 0.759457 7.87461 0.90736C7.84672 1.05526 7.84758 1.20752 7.87713 1.35507L8.26473 3.65233C7.07064 4.06491 5.99413 4.78256 5.13297 5.74012L3.29994 4.40028C3.18418 4.31345 3.05307 4.2515 2.91421 4.218C2.77536 4.18451 2.63152 4.18015 2.49104 4.20517C2.35056 4.23019 2.21623 4.28409 2.09584 4.36375C1.97545 4.44341 1.8714 4.54725 1.78972 4.66924C1.70804 4.79123 1.65035 4.92895 1.62 5.0744C1.58966 5.21986 1.58726 5.37016 1.61294 5.51659C1.63862 5.66303 1.69187 5.80268 1.76961 5.92745C1.84735 6.05222 1.94803 6.15962 2.0658 6.24344L3.89076 7.58187C3.35746 8.68113 3.08075 9.89663 3.08326 11.129V11.3708L0.890888 11.7757C0.625525 11.8243 0.387231 11.975 0.223048 12.1981C0.0588639 12.4213 -0.019279 12.7006 0.00404475 12.981C0.0273685 13.2613 0.150464 13.5224 0.349032 13.7126C0.547599 13.9028 0.807209 14.0083 1.07661 14.0083C1.13932 14.0082 1.2019 14.0026 1.26368 13.9914L3.46009 13.5865C3.65307 14.2003 3.91797 14.7868 4.24875 15.3327C3.2189 16.332 2.50096 17.632 2.18841 19.0636C1.87586 20.4951 1.98319 21.9918 2.49643 23.3587C3.00967 24.7257 3.90503 25.8995 5.0659 26.7273C6.22678 27.5551 7.59938 27.9986 9.00494 28H19.7716C22.4844 28 25.086 26.8743 27.0042 24.8704C28.9224 22.8666 30 20.1489 30 17.315C30 14.4812 28.9224 11.7634 27.0042 9.75962C25.086 7.7558 22.4844 6.63007 19.7716 6.63007ZM10.2054 13.4853C8.79007 13.2301 7.33382 13.4347 6.03333 14.0716C5.3137 12.8299 5.08154 11.3456 5.38539 9.92926C5.68924 8.51287 6.50558 7.27407 7.66365 6.47198C8.82173 5.66988 10.2318 5.36662 11.599 5.62562C12.9662 5.88462 14.1846 6.68583 14.9993 7.86165C12.803 9.06905 11.0999 11.0669 10.2054 13.4853Z" fill="black"/>
</svg>
