<svg width="21" height="24" viewBox="0 0 21 24" fill="none" xmlns="http://www.w3.org/2000/svg">
<path d="M14.6221 14.036C13.1524 13.9357 11.9435 13.3422 10.9956 12.2554C10.0481 11.169 9.6245 9.89095 9.72482 8.4212C9.81651 7.07798 10.3341 5.9422 11.2775 5.01386C12.221 4.0859 13.3797 3.5857 14.7537 3.51325C14.999 3.50066 15.1828 3.60121 15.3051 3.81492C15.4274 4.02862 15.408 4.24242 15.2467 4.45633C15.0639 4.6981 14.9215 4.95729 14.8193 5.2339C14.7175 5.51054 14.6559 5.80459 14.6347 6.11606C14.5749 6.99207 14.8306 7.75761 15.402 8.41267C15.9733 9.06774 16.697 9.42517 17.573 9.48496C17.8748 9.50556 18.1772 9.4822 18.4802 9.41487C18.7829 9.34752 19.0563 9.24395 19.3005 9.10416C19.5142 8.98185 19.724 8.98873 19.9299 9.12482C20.1357 9.2613 20.215 9.45995 20.1679 9.72076C19.9399 11.0547 19.2921 12.1301 18.2244 12.9471C17.1564 13.7641 15.9556 14.1271 14.6221 14.036ZM14.7018 12.868C15.5584 12.9265 16.3434 12.743 17.057 12.3177C17.7706 11.8919 18.309 11.3101 18.6723 10.5721C18.4743 10.6075 18.277 10.6331 18.0803 10.649C17.8836 10.665 17.688 10.6663 17.4933 10.653C16.2961 10.5713 15.3052 10.0808 14.5205 9.18155C13.7362 8.28195 13.3849 7.23355 13.4667 6.03634C13.4799 5.84167 13.5078 5.64799 13.5503 5.45532C13.5928 5.26264 13.645 5.07063 13.707 4.87928C12.9265 5.13893 12.2771 5.59332 11.7587 6.24245C11.2399 6.89156 10.9513 7.64438 10.8928 8.50093C10.8158 9.63001 11.1491 10.6209 11.8927 11.4735C12.6364 12.3261 13.5728 12.791 14.7018 12.868Z" fill="#F0F9F9"/>
<path d="M7.61132 7.32301L7.61018 7.28642V4.35959C7.61018 4.03604 7.87199 3.77423 8.19554 3.77423C8.5191 3.77423 8.78091 4.03604 8.78091 4.35959V7.28642L8.77977 7.32301C9.49661 7.41218 10.1643 7.66257 10.7428 8.03871C10.4638 8.31196 10.2443 8.64808 10.1083 9.02308C9.55835 8.66523 8.90096 8.45715 8.19554 8.45715C6.25538 8.45715 4.68335 10.0292 4.68335 11.9693C4.68335 13.9095 6.25538 15.4815 8.19554 15.4815C9.99166 15.4815 11.4722 14.1347 11.6826 12.3958C11.965 12.4987 12.268 12.5547 12.5858 12.5547C12.6727 12.5547 12.7596 12.5501 12.8442 12.5421C12.779 13.0795 12.6212 13.5894 12.3891 14.0547C12.2645 14.3051 12.1182 14.5429 11.9524 14.7647L11.9878 14.7979L14.0572 16.8672C14.2859 17.0959 14.2859 17.4663 14.0572 17.695C13.8285 17.9236 13.4581 17.9236 13.2295 17.695L11.143 15.6084C10.481 16.1458 9.66925 16.5059 8.77977 16.6157L8.78091 16.6523V19.5791C8.78091 19.9027 8.5191 20.1645 8.19554 20.1645C7.87199 20.1645 7.61018 19.9027 7.61018 19.5791V16.6523L7.61132 16.6157C7.06597 16.5482 6.5492 16.387 6.07931 16.1481C5.80606 16.0097 5.54768 15.8451 5.30873 15.6576C5.29044 15.685 5.26757 15.7113 5.24356 15.7354L2.99814 17.9808C2.76948 18.2094 2.39905 18.2094 2.17039 17.9808C1.94173 17.7521 1.94173 17.3817 2.17039 17.153L4.41582 14.9076C4.44097 14.8825 4.46727 14.8596 4.49585 14.8402C3.9928 14.1931 3.65553 13.4088 3.5492 12.5536L3.51262 12.5547H0.585788C0.262236 12.5547 0.000421702 12.2929 0.000421702 11.9693C0.000421702 11.791 0.0793089 11.6321 0.205071 11.5246C0.307967 11.4366 0.440589 11.384 0.585788 11.384H3.51262L3.5492 11.3851C3.65096 10.5631 3.9665 9.80738 4.43754 9.174L4.4021 9.14084L2.33274 7.07148C2.10408 6.84282 2.10408 6.4724 2.33274 6.24374C2.4242 6.15228 2.53739 6.0974 2.65629 6.07911C2.83464 6.05167 3.02329 6.10654 3.16048 6.24374L5.22984 8.3131L5.24699 8.33139C5.9101 7.7929 6.72184 7.43276 7.61132 7.32301Z" fill="#F0F9F9"/>
<path d="M20.0713 19.6516C20.0706 20.4498 19.7532 21.2152 19.1887 21.7796C18.6243 22.3441 17.8589 22.6615 17.0607 22.6623H15.193L15.9596 23.4289C15.9908 23.4599 16.0155 23.4969 16.0324 23.5375C16.0493 23.5782 16.058 23.6218 16.058 23.6658C16.058 23.7098 16.0493 23.7534 16.0324 23.7941C16.0155 23.8347 15.9908 23.8717 15.9596 23.9028C15.8964 23.9651 15.8113 24 15.7226 24C15.6339 24 15.5488 23.9651 15.4857 23.9028L14.1476 22.5647C14.1164 22.5336 14.0917 22.4967 14.0748 22.456C14.0579 22.4154 14.0492 22.3718 14.0492 22.3277C14.0492 22.2837 14.0579 22.2401 14.0748 22.1995C14.0917 22.1588 14.1164 22.1219 14.1476 22.0908L15.4857 20.7527C15.5485 20.6899 15.6337 20.6546 15.7226 20.6546C15.8115 20.6546 15.8967 20.6899 15.9596 20.7527C16.0224 20.8156 16.0577 20.9008 16.0577 20.9897C16.0577 21.0785 16.0224 21.1638 15.9596 21.2266L15.193 21.9932H17.0607C17.6815 21.9925 18.2767 21.7455 18.7157 21.3066C19.1546 20.8676 19.4016 20.2724 19.4023 19.6516C19.4023 19.5629 19.4376 19.4778 19.5003 19.4151C19.563 19.3523 19.6481 19.3171 19.7368 19.3171C19.8255 19.3171 19.9106 19.3523 19.9734 19.4151C20.0361 19.4778 20.0713 19.5629 20.0713 19.6516Z" fill="#F0F9F9"/>
<path d="M0 4.34841C0.000738096 3.55016 0.318169 2.78481 0.882618 2.22037C1.44707 1.65592 2.21241 1.33849 3.01066 1.33775H4.87839L4.11178 0.571144C4.0806 0.540066 4.05585 0.503138 4.03897 0.462476C4.02209 0.421815 4.01339 0.378221 4.01339 0.334194C4.01339 0.290167 4.02209 0.246572 4.03897 0.205911C4.05585 0.16525 4.0806 0.128321 4.11178 0.0972436C4.17491 0.0349359 4.26004 0 4.34873 0C4.43743 0 4.52256 0.0349359 4.58568 0.0972436L5.92376 1.43532C5.95494 1.46639 5.97969 1.50332 5.99657 1.54398C6.01345 1.58464 6.02214 1.62824 6.02214 1.67227C6.02214 1.71629 6.01345 1.75989 5.99657 1.80055C5.97969 1.84121 5.95494 1.87814 5.92376 1.90922L4.58568 3.24729C4.52284 3.31013 4.43761 3.34544 4.34873 3.34544C4.25986 3.34544 4.17463 3.31013 4.11178 3.24729C4.04894 3.18444 4.01364 3.09921 4.01364 3.01034C4.01364 2.92146 4.04894 2.83623 4.11178 2.77339L4.87839 2.00678H3.01066C2.38985 2.00752 1.79468 2.25446 1.3557 2.69344C0.916717 3.13242 0.669774 3.7276 0.669036 4.34841C0.669036 4.43713 0.633792 4.52221 0.571058 4.58495C0.508323 4.64768 0.423238 4.68293 0.334518 4.68293C0.245798 4.68293 0.160713 4.64768 0.0979782 4.58495C0.0352439 4.52221 0 4.43713 0 4.34841Z" fill="#F0F9F9"/>
</svg>
