<svg width="400" height="400" viewBox="0 0 400 400" fill="none" xmlns="http://www.w3.org/2000/svg">
<path d="M400 200C400 310.457 310.457 400 200 400C89.5431 400 0 310.457 0 200C0 89.5431 89.5431 0 200 0C310.457 0 400 89.5431 400 200Z" fill="#181823"/>
<path d="M135.461 236.903V263.599H162.157L240.89 184.794L214.195 158.099L135.461 236.903ZM275.06 244.805L244.805 275.06L207.788 238.042L220.388 225.442L227.507 232.561L245.09 214.907L255.199 225.015L244.805 235.124L252.351 242.243L262.46 232.276L275.06 244.805ZM161.16 191.201L124 154.255L154.255 124L166.784 136.6L149.2 154.255L156.817 161.801L174.33 144.146L184.438 154.255L174.33 164.292L181.448 171.411L161.16 191.201ZM261.534 163.936C264.311 161.16 264.311 156.817 261.534 153.899L244.876 137.526C242.243 134.749 237.615 134.749 234.839 137.526L221.741 150.553L248.436 177.248L261.534 163.936Z" fill="#E95D90"/>
</svg>
