<svg width="26" height="25" viewBox="0 0 26 25" fill="none" xmlns="http://www.w3.org/2000/svg">
<path d="M13.2773 1.1939e-09C6.37734 5.34866e-10 0.777344 5.6 0.777344 12.5C0.777344 19.4 6.37734 25 13.2773 25C20.1523 25 25.7773 19.4 25.7773 12.5C25.7773 5.6 20.1523 1.85054e-09 13.2773 1.1939e-09ZM21.5273 5.75C23.0273 7.575 23.9023 9.875 23.9523 12.4C23.6023 12.325 20.0773 11.625 16.5273 12.05C16.4523 11.875 16.3773 11.675 16.3023 11.5C16.0773 10.975 15.8523 10.45 15.6023 9.95C19.5023 8.375 21.3023 6.05 21.5273 5.75ZM13.2773 1.85C15.9773 1.85 18.4773 2.875 20.3523 4.525C20.1523 4.8 18.5523 6.95 14.7523 8.375C13.0023 5.15 11.0523 2.525 10.7773 2.125C11.5773 1.95 12.4023 1.85 13.2773 1.85ZM8.72734 2.85C9.00234 3.225 10.9023 5.875 12.6773 9.025C7.67734 10.35 3.27734 10.325 2.80234 10.325C3.52734 7 5.75234 4.25 8.72734 2.85ZM2.60234 12.525C2.60234 12.425 2.60234 12.3 2.60234 12.2C3.05234 12.225 8.25234 12.275 13.5773 10.675C13.8773 11.275 14.1773 11.875 14.4523 12.5C14.3273 12.55 14.1773 12.575 14.0273 12.625C8.52734 14.4 5.60234 19.25 5.35234 19.65C3.62734 17.75 2.60234 15.25 2.60234 12.525ZM13.2773 23.175C10.8023 23.175 8.52734 22.325 6.72734 20.925C6.92734 20.525 9.07734 16.35 15.1023 14.25C15.1273 14.225 15.1523 14.225 15.1773 14.225C16.6773 18.125 17.3023 21.375 17.4523 22.325C16.1773 22.875 14.7523 23.175 13.2773 23.175ZM19.2273 21.35C19.1273 20.7 18.5523 17.575 17.1523 13.75C20.5023 13.225 23.4273 14.1 23.8023 14.2C23.3273 17.175 21.6273 19.75 19.2273 21.35Z" fill="white"/>
</svg>
