<svg width="25" height="26" viewBox="0 0 25 26" fill="none" xmlns="http://www.w3.org/2000/svg">
<path d="M12.5 0.291016C5.6 0.291016 -5.34866e-10 5.89102 -1.1939e-09 12.791C-1.85293e-09 19.691 5.6 25.291 12.5 25.291C19.375 25.291 25 19.691 25 12.791C25 5.89102 19.375 0.291016 12.5 0.291016ZM20.75 6.04102C22.25 7.86602 23.125 10.166 23.175 12.691C22.825 12.616 19.3 11.916 15.75 12.341C15.675 12.166 15.6 11.966 15.525 11.791C15.3 11.266 15.075 10.741 14.825 10.241C18.725 8.66602 20.525 6.34102 20.75 6.04102ZM12.5 2.14102C15.2 2.14102 17.7 3.16602 19.575 4.81602C19.375 5.09102 17.775 7.24102 13.975 8.66602C12.225 5.44102 10.275 2.81602 10 2.41602C10.8 2.24102 11.625 2.14102 12.5 2.14102ZM7.95 3.14102C8.225 3.51602 10.125 6.16602 11.9 9.31602C6.9 10.641 2.5 10.616 2.025 10.616C2.75 7.29102 4.975 4.54102 7.95 3.14102ZM1.825 12.816C1.825 12.716 1.825 12.591 1.825 12.491C2.275 12.516 7.475 12.566 12.8 10.966C13.1 11.566 13.4 12.166 13.675 12.791C13.55 12.841 13.4 12.866 13.25 12.916C7.75 14.691 4.825 19.541 4.575 19.941C2.85 18.041 1.825 15.541 1.825 12.816ZM12.5 23.466C10.025 23.466 7.75 22.616 5.95 21.216C6.15 20.816 8.3 16.641 14.325 14.541C14.35 14.516 14.375 14.516 14.4 14.516C15.9 18.416 16.525 21.666 16.675 22.616C15.4 23.166 13.975 23.466 12.5 23.466ZM18.45 21.641C18.35 20.991 17.775 17.866 16.375 14.041C19.725 13.516 22.65 14.391 23.025 14.491C22.55 17.466 20.85 20.041 18.45 21.641Z" fill="#EA4C89"/>
</svg>
