<svg width="105" height="105" viewBox="0 0 105 105" fill="none" xmlns="http://www.w3.org/2000/svg">
<path d="M52.5 5.01437e-09C23.52 2.24644e-09 -2.24644e-09 23.52 -5.01437e-09 52.5C-7.78231e-09 81.48 23.52 105 52.5 105C81.375 105 105 81.48 105 52.5C105 23.52 81.375 7.77228e-09 52.5 5.01437e-09ZM87.15 24.15C93.45 31.815 97.125 41.475 97.335 52.08C95.865 51.765 81.06 48.825 66.15 50.61C65.835 49.875 65.52 49.035 65.205 48.3C64.26 46.095 63.315 43.89 62.265 41.79C78.645 35.175 86.205 25.41 87.15 24.15ZM52.5 7.77C63.84 7.77 74.34 12.075 82.215 19.005C81.375 20.16 74.655 29.19 58.695 35.175C51.345 21.63 43.155 10.605 42 8.925C45.36 8.19 48.825 7.77 52.5 7.77ZM33.39 11.97C34.545 13.545 42.525 24.675 49.98 37.905C28.98 43.47 10.5 43.365 8.505 43.365C11.55 29.4 20.895 17.85 33.39 11.97ZM7.665 52.605C7.665 52.185 7.665 51.66 7.665 51.24C9.555 51.345 31.395 51.555 53.76 44.835C55.02 47.355 56.28 49.875 57.435 52.5C56.91 52.71 56.28 52.815 55.65 53.025C32.55 60.48 20.265 80.85 19.215 82.53C11.97 74.55 7.665 64.05 7.665 52.605ZM52.5 97.335C42.105 97.335 32.55 93.765 24.99 87.885C25.83 86.205 34.86 68.67 60.165 59.85C60.27 59.745 60.375 59.745 60.48 59.745C66.78 76.125 69.405 89.775 70.035 93.765C64.68 96.075 58.695 97.335 52.5 97.335ZM77.49 89.67C77.07 86.94 74.655 73.815 68.775 57.75C82.845 55.545 95.13 59.22 96.705 59.64C94.71 72.135 87.57 82.95 77.49 89.67Z" fill="white"/>
</svg>
