<svg width="400" height="400" viewBox="0 0 400 400" fill="none" xmlns="http://www.w3.org/2000/svg">
<path d="M400 200C400 310.457 310.457 400 200 400C89.5431 400 0 310.457 0 200C0 89.5431 89.5431 0 200 0C310.457 0 400 89.5431 400 200Z" fill="#181823"/>
<path d="M209.092 134V167.046C209.092 170.802 210.584 174.404 213.24 177.06C215.896 179.716 219.498 181.208 223.254 181.208H256.3V252.021C256.3 255.777 254.808 259.379 252.152 262.035C249.496 264.691 245.894 266.183 242.137 266.183H236.614C237.504 263.663 237.662 260.942 237.07 258.336C236.479 255.73 235.162 253.344 233.272 251.454L214.388 232.571C218.016 224.987 219.313 216.498 218.114 208.177C216.915 199.856 213.274 192.078 207.653 185.826C202.032 179.575 194.682 175.132 186.535 173.06C178.387 170.987 169.808 171.379 161.883 174.184V148.163C161.883 144.406 163.375 140.804 166.031 138.148C168.687 135.492 172.29 134 176.046 134H209.092ZM218.533 136.36V167.046C218.533 168.298 219.031 169.499 219.916 170.384C220.801 171.269 222.002 171.767 223.254 171.767H253.94L218.533 136.36ZM195.836 240.719C189.145 245.722 180.807 248.006 172.5 247.109C164.194 246.213 156.535 242.204 151.066 235.888C145.596 229.573 142.722 221.42 143.021 213.07C143.321 204.721 146.771 196.795 152.679 190.887C158.587 184.98 166.513 181.529 174.862 181.23C183.211 180.93 191.364 183.805 197.68 189.274C203.995 194.744 208.005 202.402 208.901 210.709C209.797 219.015 207.514 227.353 202.511 234.044L226.587 258.12C227.474 259.005 227.972 260.206 227.973 261.459C227.974 262.712 227.477 263.914 226.592 264.8C225.707 265.687 224.506 266.185 223.253 266.186C222 266.187 220.798 265.69 219.912 264.805L195.836 240.729V240.719ZM199.65 214.254C199.65 207.994 197.163 201.99 192.736 197.564C188.31 193.137 182.306 190.65 176.046 190.65C169.786 190.65 163.782 193.137 159.355 197.564C154.929 201.99 152.442 207.994 152.442 214.254C152.442 220.514 154.929 226.518 159.355 230.945C163.782 235.371 169.786 237.858 176.046 237.858C182.306 237.858 188.31 235.371 192.736 230.945C197.163 226.518 199.65 220.514 199.65 214.254Z" fill="#FFF3E4"/>
</svg>
