<svg width="400" height="400" viewBox="0 0 400 400" fill="none" xmlns="http://www.w3.org/2000/svg">
<path d="M400 200C400 310.457 310.457 400 200 400C89.5431 400 0 310.457 0 200C0 89.5431 89.5431 0 200 0C310.457 0 400 89.5431 400 200Z" fill="#181823"/>
<path d="M184.09 124.961C168.201 121.774 151.107 126.514 138.799 139.181C125.659 152.705 121.298 171.844 125.717 189.094C132.613 182.916 143.081 183.204 149.644 189.959C151.939 192.321 153.465 195.174 154.224 198.19C159.515 197.404 165.087 199.106 169.157 203.296C172.261 206.491 173.96 210.584 174.253 214.762C178.31 215.066 182.283 216.814 185.385 220.006C188.489 223.2 190.187 227.294 190.481 231.471C194.543 231.772 198.522 233.52 201.627 236.716C208.483 243.773 208.483 255.213 201.627 262.27L198.776 265.205L207.163 273.39C209.494 275.664 213.148 275.608 215.412 273.262C217.518 271.08 217.706 267.662 215.974 265.26L215.515 264.785C215.307 264.57 215.118 264.342 214.946 264.105L213.711 262.827C211.346 260.376 211.346 256.405 213.711 253.954C216.077 251.505 219.911 251.505 222.277 253.954L223.976 255.715C224.334 256.086 224.673 256.468 224.994 256.86L225.904 257.804C228.148 260.128 231.787 260.128 234.031 257.804C236.275 255.48 236.275 251.71 234.031 249.386L232.207 247.496C230.986 246.232 230.395 244.562 230.435 242.905C230.429 241.292 231.02 239.677 232.208 238.447C234.573 235.996 238.408 235.996 240.773 238.447L242.156 239.878C244.643 242.455 248.677 242.455 251.167 239.878C253.654 237.3 253.654 233.121 251.167 230.544L250.858 230.224C250.483 229.885 250.116 229.53 249.759 229.16L240.35 219.414C237.985 216.964 237.985 212.992 240.35 210.542C242.715 208.092 246.55 208.092 248.915 210.542L257.756 219.7C257.963 219.865 258.16 220.045 258.35 220.24L259.069 220.986C262.92 224.238 268.6 224.005 272.188 220.288C276.017 216.322 276.017 209.892 272.188 205.926L263.227 196.644C263.108 196.537 262.993 196.425 262.883 196.309L226.572 158.213H217.27L196.5 174.512C186.45 182.399 172.1 180.395 164.444 170.035C156.783 159.67 158.725 144.867 168.78 136.976L184.09 124.961Z" fill="#FBE4FF"/>
<path d="M229.115 145.687C230.741 145.687 232.301 146.361 233.44 147.558L266.151 181.878C272.162 169.602 271.599 154.809 264.315 142.944C260.216 136.265 254.415 131.196 247.772 128.076C247.627 128.008 247.485 127.935 247.347 127.855C243.533 125.676 239.144 124.434 234.456 124.434H204.722C204.537 124.623 204.339 124.801 204.128 124.966L176.126 146.942C171.411 150.642 170.501 157.578 174.093 162.439C177.689 167.304 184.433 168.246 189.153 164.542L211.551 146.965C212.607 146.136 213.897 145.687 215.224 145.687H229.115ZM176.792 236.714L168.823 244.915C166.712 247.088 163.29 247.088 161.18 244.915C159.118 242.794 159.07 239.385 161.035 237.203L161.188 237.049L169.157 228.847L169.301 228.696C171.156 226.929 173.922 226.747 175.965 228.149C176.257 228.349 176.534 228.582 176.792 228.847C178.902 231.019 178.902 234.541 176.792 236.714ZM177.422 261.626C178.949 263.198 181.162 263.632 183.069 262.93C183.797 262.66 184.481 262.227 185.065 261.626L193.034 253.423C195.145 251.252 195.145 247.729 193.034 245.557C192.771 245.286 192.486 245.048 192.187 244.845C190.089 243.42 187.238 243.656 185.391 245.557L177.422 253.76C176.839 254.36 176.416 255.064 176.155 255.814C175.473 257.776 175.895 260.054 177.422 261.626ZM141.195 206.557L133.226 214.759C131.115 216.932 127.693 216.932 125.583 214.759C123.522 212.638 123.474 209.229 125.439 207.047L125.591 206.893L133.56 198.691L133.704 198.541C135.559 196.773 138.325 196.59 140.369 197.993C140.66 198.193 140.938 198.426 141.195 198.691C143.306 200.863 143.306 204.385 141.195 206.557ZM159.108 220.495L151.139 228.696C149.028 230.869 145.607 230.869 143.496 228.696C141.435 226.575 141.387 223.167 143.352 220.985L143.504 220.83L151.473 212.628L151.617 212.478C153.472 210.71 156.239 210.528 158.282 211.93C158.574 212.131 158.851 212.363 159.108 212.629C161.219 214.801 161.219 218.323 159.108 220.495Z" fill="#FBE4FF"/>
</svg>
