<svg width="32" height="32" viewBox="0 0 32 32" fill="none" xmlns="http://www.w3.org/2000/svg">
<path d="M31.7668 7.41721C31.3008 6.88031 30.7075 7.2875 30.4228 7.48221C25.7473 10.673 21.1918 15.7276 18.1931 19.4053L17.464 20.2998C15.9806 22.1542 14.8375 23.7137 14.2113 24.5888C14.1565 24.5848 14.1017 24.5785 14.0466 24.5785C13.2973 24.5785 12.5796 24.9504 11.9705 25.6543C10.4574 27.405 8.92016 27.6579 6.56926 27.8666L5.41797 27.9689L6.2518 28.8912C8.01147 30.8383 10.3462 32.0009 12.4975 32.0009C13.9663 32.0009 15.2542 31.4471 16.1237 30.4417C16.7316 29.739 17.0528 28.91 17.0525 28.0455C17.0525 27.8998 17.0396 27.7558 17.0215 27.6129C17.898 26.771 19.1624 25.518 20.6351 23.9433L21.4057 23.1043C24.5865 19.6375 28.9574 14.3707 31.7148 8.96962C31.8827 8.64003 32.2322 7.9542 31.7672 7.41702L31.7668 7.41721ZM15.393 29.6001C14.7085 30.3916 13.7072 30.8093 12.4969 30.8093C10.956 30.8093 9.29754 30.1198 7.88587 28.9234C9.73678 28.6763 11.2537 28.1708 12.7003 26.4968C13.5218 25.5473 14.5681 25.547 15.39 26.4948C15.8015 26.969 16.019 27.5056 16.0192 28.0469C16.0205 28.5883 15.8037 29.1255 15.393 29.6L15.393 29.6001ZM16.6452 26.4222C16.5044 26.153 16.3305 25.8938 16.1202 25.6513C15.8635 25.3552 15.5865 25.1218 15.2968 24.9466C15.9071 24.1039 16.8337 22.8588 17.9807 21.4133C18.3441 21.6092 18.7067 21.8933 18.9772 22.2059C19.2488 22.518 19.4956 22.9355 19.666 23.3525C18.4741 24.6173 17.4331 25.6581 16.6452 26.4221L16.6452 26.4222ZM20.6968 22.2375L20.4453 22.5112C20.2397 22.0891 19.9879 21.6865 19.7064 21.363C19.4254 21.0382 19.0757 20.7479 18.7086 20.5117L18.9443 20.2227C21.8306 16.682 26.1753 11.8513 30.64 8.7219C27.9359 13.8779 23.7582 18.901 20.6966 22.2379L20.6968 22.2375Z" fill="#E95D90"/>
<path d="M4.58594 8.84914C4.58594 10.4919 5.74364 11.8291 7.167 11.8291C8.59035 11.8291 9.74805 10.4925 9.74805 8.84914C9.74805 7.20579 8.59035 5.86914 7.167 5.86914C5.74364 5.86943 4.58594 7.20579 4.58594 8.84914ZM8.71562 8.84914C8.71562 9.83473 8.02096 10.6368 7.16725 10.6368C6.31361 10.6368 5.61888 9.8348 5.61888 8.84914C5.61888 7.86297 6.31354 7.06145 7.16725 7.06145C8.02089 7.06145 8.71562 7.86326 8.71562 8.84914Z" fill="#E95D90"/>
<path d="M20.6045 11.8291C22.0279 11.8291 23.1856 10.4925 23.1856 8.84914C23.1856 7.20579 22.0279 5.86914 20.6045 5.86914C19.1811 5.86914 18.0234 7.20579 18.0234 8.84914C18.0234 10.4925 19.1811 11.8291 20.6045 11.8291V11.8291ZM20.6045 7.06145C21.4581 7.06145 22.1529 7.86348 22.1529 8.84914C22.1529 9.83473 21.4582 10.6368 20.6045 10.6368C19.7503 10.6368 19.0561 9.8348 19.0561 8.84914C19.0556 7.86385 19.7503 7.06145 20.6045 7.06145Z" fill="#E95D90"/>
<path d="M16.4668 6.16975C16.4668 4.52639 15.3091 3.18945 13.8857 3.18945C12.4629 3.18945 11.3047 4.5261 11.3047 6.16975C11.3047 7.8131 12.4624 9.14975 13.8857 9.14975C15.3088 9.14946 16.4668 7.81281 16.4668 6.16975ZM13.8855 7.95773C13.0318 7.95773 12.3371 7.1557 12.3371 6.17004C12.3371 5.18387 13.0318 4.38176 13.8855 4.38176C14.7396 4.38176 15.4339 5.18379 15.4339 6.17004C15.4344 7.15563 14.7394 7.95773 13.8855 7.95773Z" fill="#E95D90"/>
<path d="M13.0387 0.00521167C8.34677 -0.10446 4.09842 1.52373 1.92637 4.23228C-0.244275 6.93797 -0.192403 9.20273 0.233181 10.6259C1.25152 14.0305 5.55555 16.7466 11.7461 17.8911C12.0383 17.9449 12.2831 18.1136 12.4351 18.367C12.5909 18.6256 12.6434 18.9594 12.5829 19.306C12.3493 20.6466 12.2273 21.8925 12.2198 23.0095C12.2176 23.3383 12.447 23.6077 12.7322 23.6097H12.7362C13.0197 23.6097 13.2503 23.3457 13.2526 23.0181C13.2593 21.977 13.3748 20.8073 13.5953 19.5405C13.7116 18.873 13.6008 18.2144 13.2836 17.6867C12.9696 17.1649 12.4817 16.8193 11.9093 16.7137C6.18762 15.6568 2.08778 13.175 1.20842 10.2373C0.723057 8.61485 1.21933 6.86755 2.68288 5.0424C4.63131 2.613 8.68677 1.0925 13.0187 1.19762C18.4405 1.31416 23.3856 3.84922 26.5868 8.15157C26.7723 8.40155 27.0985 8.42961 27.3147 8.21514C27.531 8.00095 27.5556 7.6244 27.3698 7.37469C23.9774 2.81489 18.7534 0.128334 13.0379 0.00532828L13.0387 0.00521167Z" fill="#E95D90"/>
</svg>
