<svg width="32" height="35" viewBox="0 0 32 35" fill="none" xmlns="http://www.w3.org/2000/svg">
<path d="M17.5926 19.6569L12.574 13.8491C12.06 13.3084 11.3127 13.0575 10.5777 13.1782C9.84231 13.299 9.21417 13.776 8.89902 14.4526C8.58386 15.1295 8.62286 15.9186 9.00281 16.5608L15.3153 25.686L15.3157 25.6863C14.2227 25.3622 13.0866 25.2096 11.9474 25.2342C9.46732 25.424 8.6511 28.2445 11.4017 29.2206C14.3192 30.3453 17.1695 31.6385 19.9375 33.0941C21.7772 34.0387 23.3372 34.4502 25.1005 34.2828C26.9357 34.1065 28.6716 33.2613 30.403 31.6975C34.2359 28.2354 30.2904 21.2704 27.666 18.0702C25.682 15.5619 23.2381 15.9367 21.6869 17.9391C20.2441 17.7903 18.5623 18.0343 17.5926 19.6567L17.5926 19.6569ZM18.4267 21.1122C18.7469 20.0727 19.4322 18.9336 21.8987 19.3539V19.3542C22.1692 19.4002 22.4407 19.2769 22.5841 19.0424C23.4544 17.7813 24.9289 16.7825 26.6421 18.9519H26.6424C28.1531 20.7965 29.3423 22.8841 30.1595 25.126C31.0071 27.6798 30.7907 29.5553 29.5147 30.708C26.665 33.2797 23.9098 33.6504 20.5819 31.9102C17.7537 30.4223 14.8402 29.1033 11.8569 27.9601C11.3382 27.7794 11.0271 27.508 11.0589 27.2233C11.0904 26.9386 11.4558 26.6583 12.0824 26.6041C13.6739 26.4458 16.7625 27.5713 16.7716 27.5713C17.0481 27.6725 17.3582 27.583 17.5385 27.3497C17.719 27.116 17.7278 26.7929 17.5608 26.5498L10.1162 15.8192C9.89608 15.4242 10.0011 14.927 10.3619 14.6552C10.723 14.3838 11.2288 14.4213 11.5458 14.7435L17.2676 21.3514C17.4293 21.5359 17.6768 21.6188 17.9165 21.5693C18.1561 21.5198 18.3508 21.3451 18.4263 21.1121L18.4267 21.1122Z" fill="#5221E6"/>
<path d="M11.6046 11.6218C11.9066 11.6212 12.1714 11.4203 12.2538 11.129L12.6643 9.69608V9.69639C12.7665 9.33571 12.5574 8.96022 12.1975 8.85805C11.8377 8.75558 11.4634 8.96492 11.3612 9.32561L10.9554 10.7538V10.7541C10.8976 10.9587 10.9385 11.1785 11.0658 11.3487C11.1932 11.519 11.3923 11.6199 11.6046 11.6217L11.6046 11.6218Z" fill="#5221E6"/>
<path d="M9.35132 11.6467C9.70296 11.5246 9.89041 11.1409 9.77058 10.7878L9.28369 9.3823C9.15913 9.02887 8.77258 8.8438 8.42028 8.96865C8.0677 9.09351 7.88307 9.48098 8.00762 9.83412L8.49011 11.2352C8.61529 11.5867 9.00027 11.7705 9.35126 11.6466L9.35132 11.6467Z" fill="#5221E6"/>
<path d="M7.68774 12.8859C7.79405 12.7405 7.83808 12.5586 7.81008 12.3805C7.78209 12.2024 7.68459 12.0425 7.53896 11.9369L6.33496 11.0645C6.18965 10.9589 6.00848 10.9157 5.8314 10.9441C5.65433 10.9724 5.49549 11.0702 5.39044 11.2158C5.17121 11.5191 5.23883 11.9432 5.54141 12.1626L6.74541 13.035C7.04704 13.2538 7.46819 13.1869 7.68772 12.8858L7.68774 12.8859Z" fill="#5221E6"/>
<path d="M4.88326 14.1387C4.50961 14.1387 4.20703 14.4423 4.20703 14.8168C4.20703 15.1911 4.50961 15.4947 4.88326 15.4947L6.38043 15.5218C6.75377 15.5218 7.05666 15.2182 7.05666 14.8439C7.05666 14.4694 6.75377 14.1658 6.38043 14.1658L4.88326 14.1387Z" fill="#5221E6"/>
<path d="M1.96142 0C1.44119 0 0.94237 0.207137 0.57464 0.576012C0.206644 0.944571 0 1.44463 0 1.9661V31.1327C0.00125811 31.6532 0.208528 32.1523 0.57621 32.52C0.943892 32.8876 1.44211 33.0941 1.96138 33.0941H15.8179C16.1915 33.0941 16.4941 32.7908 16.4941 32.4162C16.4941 32.0417 16.1915 31.7384 15.8179 31.7384H1.96138C1.62704 31.7384 1.35529 31.4679 1.35277 31.1327V1.98471C1.34899 1.82013 1.41158 1.66092 1.52607 1.54269C1.64024 1.42478 1.79719 1.35762 1.96137 1.35636H4.04004L4.09855 1.92575H4.09886C4.16145 2.37471 4.3898 2.78363 4.73892 3.07145C5.08805 3.3593 5.53216 3.50527 5.9835 3.48068H12.7156C13.1676 3.50653 13.613 3.36118 13.963 3.07302C14.3131 2.78486 14.5421 2.37531 14.605 1.92571L14.6543 1.35632H16.733C16.9007 1.35127 17.0633 1.41591 17.1818 1.53476C17.3004 1.65363 17.3649 1.81631 17.3599 1.98466V17.4061C17.3599 17.7807 17.6628 18.0843 18.0361 18.0843C18.4098 18.0843 18.7126 17.7807 18.7126 17.4061V1.98466C18.7174 1.45847 18.5117 0.952448 18.1411 0.579482C17.7709 0.206508 17.2671 -0.00220291 16.7421 0.000315278L1.96142 0ZM13.2614 1.80777V1.80808C13.1809 2.03477 12.9545 2.1757 12.7161 2.14701H5.98395C5.74711 2.17349 5.52285 2.03319 5.44296 1.80808L5.39798 1.35597H13.302L13.2614 1.80777Z" fill="#5221E6"/>
</svg>
