<svg width="34" height="34" viewBox="0 0 34 34" fill="none" xmlns="http://www.w3.org/2000/svg">
<path d="M1 31.4854C1 32.0957 1.60204 32.4627 3.00806 32.7225C4.27721 32.9201 5.55629 33.0124 6.83638 32.9986C9.49169 32.9986 12.6587 32.7389 12.6587 31.4935C12.6587 31.4193 12.6031 25.2092 8.58355 23.7986L8.58331 23.7989C9.52693 23.1842 10.1899 22.1033 10.3916 20.8501C10.5936 19.5971 10.313 18.3025 9.62668 17.3197C8.9404 16.3368 7.91984 15.7676 6.84322 15.7676C5.7666 15.7676 4.74604 16.3368 4.05976 17.3197C3.37349 18.3025 3.09308 19.5972 3.29481 20.8501C3.49654 22.1033 4.15976 23.1842 5.10313 23.7989C1.05563 25.2009 1.00007 31.4231 1.00007 31.4849L1 31.4854ZM3.90943 20.0469C3.90943 19.1306 4.21676 18.2515 4.76369 17.6034C5.31062 16.9554 6.05222 16.5913 6.82594 16.5913C7.59934 16.5913 8.34099 16.9554 8.88794 17.6034C9.43489 18.2515 9.7422 19.1305 9.7422 20.0469C9.7422 20.9633 9.43487 21.8424 8.88794 22.4904C8.34101 23.1385 7.59941 23.5026 6.82594 23.5026C6.05278 23.5015 5.31138 23.137 4.76468 22.4893C4.21799 21.8415 3.91042 20.963 3.90943 20.0469V20.0469ZM6.82594 24.3273C11.6981 24.3273 11.9418 30.7188 11.9522 31.4281C11.6808 31.7333 9.91988 32.1662 6.82594 32.1662C3.732 32.1662 1.95382 31.7537 1.69622 31.4281C1.70642 30.7188 1.94311 24.3273 6.82594 24.3273V24.3273Z" fill="#3CC74E" stroke="#3CC74E"/>
<path d="M28.9243 23.7908C29.8679 23.1764 30.5309 22.0952 30.7326 20.842C30.9343 19.589 30.654 18.2946 29.9677 17.3115C29.2814 16.3287 28.2608 15.7598 27.1842 15.7598C26.1076 15.7598 25.087 16.3287 24.4007 17.3115C23.7145 18.2947 23.4341 19.5891 23.6358 20.842C23.8375 22.0952 24.5005 23.1764 25.4441 23.7908C23.9303 24.3227 22.7818 25.5885 22.0788 27.535C21.6464 28.7908 21.4105 30.1294 21.3828 31.4854C21.3828 32.0957 21.9849 32.4627 23.3909 32.7225C24.66 32.9201 25.9391 33.0124 27.2192 32.9986C29.8327 32.9906 32.9998 32.7308 32.9998 31.4854C32.9998 31.4235 32.9439 25.2011 28.9244 23.7905L28.9243 23.7908ZM24.2609 20.0466C24.2609 19.1303 24.5682 18.2512 25.1152 17.6031C25.6621 16.9551 26.4037 16.591 27.1772 16.591C27.9508 16.591 28.6925 16.9551 29.2394 17.6031C29.7864 18.2512 30.0937 19.1302 30.0937 20.0466C30.0937 20.963 29.7864 21.8421 29.2394 22.4901C28.6925 23.1382 27.9509 23.5023 27.1772 23.5023C26.404 23.5012 25.6629 23.1367 25.1162 22.489C24.5695 21.8412 24.2619 20.9627 24.2609 20.0466V20.0466ZM27.1772 32.1654C24.0798 32.1654 22.3051 31.753 22.0475 31.4274C22.0475 30.7181 22.2946 24.3265 27.1772 24.3265C32.06 24.3268 32.3035 30.7184 32.3035 31.4233C32.0321 31.7326 30.2711 32.1654 27.1772 32.1654V32.1654Z" fill="#3CC74E" stroke="#3CC74E"/>
<path d="M19.5378 1.00001C18.6702 0.99857 17.8091 1.17719 16.9936 1.52782C16.1782 1.1772 15.3171 0.998573 14.4495 1.00001C10.8616 1.00001 7.94531 3.97736 7.94531 7.63892C7.95842 9.25542 8.51312 10.7995 9.48709 11.9316L8.34907 14.1666C8.28426 14.2928 8.28135 14.451 8.34179 14.5805C8.40224 14.7099 8.51658 14.7913 8.6416 14.7933C8.68068 14.7927 8.71952 14.7844 8.75642 14.7686L11.5406 13.5933H11.5404C13.2768 14.4565 15.2235 14.514 16.9939 13.7541C18.76 14.5097 20.7013 14.4522 22.4334 13.5933L25.2176 14.7686C25.2545 14.7844 25.2933 14.7927 25.3324 14.7933C25.4587 14.7942 25.5752 14.7142 25.6373 14.5839C25.6995 14.4539 25.6973 14.2943 25.6317 14.1666L24.4937 11.9316C25.4703 10.8009 26.0275 9.25659 26.0425 7.63891C26.0425 3.97727 23.126 1 19.5383 1L19.5378 1.00001ZM14.4496 13.4575C13.5062 13.4607 12.5728 13.2274 11.7108 12.773C11.628 12.7341 11.536 12.7341 11.4532 12.773L9.44853 13.5976L10.2246 12.0677V12.068C10.3096 11.9003 10.2834 11.6848 10.162 11.5525C9.21282 10.5599 8.66053 9.1393 8.64133 7.63921C8.64133 4.43522 11.248 1.82494 14.4498 1.82494H14.4496C14.9856 1.82638 15.5194 1.90231 16.0401 2.05188C14.234 3.23122 13.0333 5.29299 13.0333 7.63921C13.0333 9.98544 14.234 12.0432 16.0401 13.2309C15.5194 13.3805 14.9856 13.4567 14.4496 13.4575L14.4496 13.4575ZM23.7628 12.076L24.5389 13.6059L22.5341 12.7813H22.5344C22.4977 12.7649 22.4586 12.7562 22.4196 12.7565C22.3703 12.7568 22.3217 12.7695 22.2768 12.7936C21.4148 13.2481 20.4814 13.4814 19.538 13.4782C16.3363 13.4782 13.7296 10.8679 13.7296 7.65989C13.7296 4.45192 16.3363 1.84562 19.538 1.84562C22.7398 1.84562 25.3463 4.43521 25.3463 7.6392C25.329 9.14209 24.7765 10.5662 23.8256 11.5605C23.7042 11.6931 23.678 11.9086 23.763 12.076L23.7628 12.076Z" fill="#3CC74E" stroke="#3CC74E"/>
</svg>
