<svg width="25" height="26" viewBox="0 0 25 26" fill="none" xmlns="http://www.w3.org/2000/svg">
<path d="M12.4931 25.3622C9.07826 25.3622 8.67571 25.3441 7.34312 25.2858C6.30394 25.2517 5.27822 25.0404 4.31009 24.6612C2.63507 24.0093 1.31057 22.6844 0.659354 21.0091C0.29471 20.0374 0.0980286 19.0109 0.0777344 17.9733C-1.18682e-08 16.6434 -1.51686e-09 16.2076 -1.19323e-09 12.8192C-8.66154e-10 9.39472 0.0180455 8.99494 0.0777344 7.66929C0.0984728 6.63311 0.295141 5.60796 0.659354 4.63765C1.30987 2.96016 2.63651 1.63402 4.31426 0.984138C5.28406 0.617967 6.30946 0.420772 7.3459 0.40113C8.67155 0.326172 9.10741 0.326172 12.4931 0.326172C15.9356 0.326172 16.3312 0.344217 17.643 0.40113C18.682 0.420938 19.7102 0.618106 20.683 0.984138C22.3602 1.63476 23.6866 2.96065 24.3379 4.63765C24.7086 5.6221 24.9063 6.66327 24.9223 7.7151C25 9.04491 25 9.47941 25 12.8664C25 16.2534 24.9806 16.6976 24.9223 18.0121C24.9016 19.0507 24.7043 20.0782 24.3393 21.0507C23.6863 22.7271 22.3598 24.0526 20.683 24.7042C19.7116 25.0682 18.6856 25.2649 17.6485 25.2858C16.3229 25.3622 15.8884 25.3622 12.4931 25.3622ZM12.4459 2.52356C9.0505 2.52356 8.69792 2.54021 7.37227 2.5999C6.58103 2.6104 5.79743 2.75641 5.05551 3.03161C3.95996 3.45083 3.09304 4.31422 2.66934 5.40806C2.39203 6.15805 2.24598 6.95022 2.23764 7.7498C2.16407 9.09489 2.16407 9.44747 2.16407 12.8192C2.16407 16.1507 2.17656 16.5546 2.23764 17.8914C2.25008 18.6829 2.39602 19.4666 2.66934 20.2095C3.09366 21.3027 3.96043 22.1654 5.05551 22.5846C5.79693 22.8616 6.58084 23.0077 7.37227 23.0163C8.71597 23.094 9.06993 23.094 12.4459 23.094C15.8509 23.094 16.2035 23.0774 17.5181 23.0163C18.3098 23.0067 19.094 22.8607 19.8362 22.5846C20.9251 22.1618 21.7864 21.301 22.2099 20.2123C22.4867 19.4617 22.6326 18.6691 22.6416 17.8692L22.6569 17.8692C22.7166 16.5421 22.7166 16.1881 22.7166 12.797C22.7166 9.40584 22.7013 9.04908 22.6416 7.72343C22.6291 6.93284 22.4831 6.15003 22.2099 5.40806C21.7873 4.3178 20.9259 3.4554 19.8362 3.03161C19.0941 2.75502 18.3098 2.60897 17.5181 2.5999C16.1758 2.52356 15.8246 2.52356 12.4459 2.52356ZM12.4931 19.2309C9.89718 19.2326 7.55609 17.6702 6.56143 15.2727C5.56677 12.875 6.11452 10.1142 7.94921 8.27794C9.78391 6.44165 12.5442 5.89151 14.9427 6.88409C17.3412 7.87668 18.9055 10.2165 18.9062 12.8123C18.9023 16.3535 16.0342 19.224 12.4931 19.2309ZM12.4931 8.64514C10.1931 8.64514 8.32868 10.5097 8.32868 12.8095C8.32868 15.1094 10.1931 16.9738 12.4931 16.9738C14.7929 16.9738 16.6574 15.1094 16.6574 12.8095C16.652 10.5117 14.7907 8.65048 12.4931 8.64514ZM19.156 7.65543C18.3307 7.65236 17.6637 6.98161 17.6652 6.15626C17.6667 5.33092 18.3362 4.66265 19.1616 4.66265C19.9868 4.66265 20.6563 5.3309 20.658 6.15625C20.6583 6.55446 20.5 6.93641 20.2182 7.21771C19.9364 7.49903 19.5541 7.65652 19.156 7.65543Z" fill="#F00073"/>
</svg>
