<svg width="105" height="105" viewBox="0 0 105 105" fill="none" xmlns="http://www.w3.org/2000/svg">
<path d="M52.471 105C38.1287 105 36.438 104.924 30.8411 104.68C26.4765 104.537 22.1685 103.651 18.1024 102.06C11.0673 99.3262 5.50441 93.7694 2.76929 86.7432C1.23778 82.668 0.41172 78.3629 0.326484 74.0112C-4.98369e-08 68.434 -6.36166e-09 66.606 -5.00437e-09 52.3952C-3.63261e-09 38.0331 0.075791 36.3565 0.326484 30.7967C0.413586 26.451 1.23959 22.1516 2.76929 18.0822C5.50144 11.0468 11.0734 5.48508 18.1199 2.75948C22.1931 1.22378 26.4997 0.396748 30.8528 0.314371C36.4205 -5.80239e-07 38.2511 3.65344e-09 52.471 5.0116e-09C66.9296 6.39257e-09 68.5912 0.0756814 74.1006 0.314371C78.4644 0.397446 82.7827 1.22436 86.8685 2.75948C93.9129 5.48817 99.4836 11.0489 102.219 18.0822C103.776 22.2109 104.606 26.5775 104.674 30.9889C105 36.566 105 38.3883 105 52.5931C105 66.7981 104.918 68.661 104.674 74.1742C104.587 78.53 103.758 82.8392 102.225 86.9178C99.4824 93.9487 93.9112 99.5078 86.8685 102.241C82.7886 103.767 78.4796 104.592 74.1239 104.68C68.5562 105 66.7314 105 52.471 105ZM52.2728 9.21573C38.0121 9.21573 36.5313 9.2856 30.9635 9.53593C27.6403 9.57994 24.3492 10.1923 21.2331 11.3465C16.6318 13.1047 12.9908 16.7257 11.2112 21.3132C10.0465 24.4587 9.43312 27.781 9.39808 31.1344C9.08909 36.7756 9.08909 38.2543 9.08909 52.3952C9.08909 66.3673 9.14156 68.0614 9.39808 73.6677C9.45032 76.9872 10.0633 80.2741 11.2112 83.3899C12.9934 87.9745 16.6338 91.5927 21.2331 93.3508C24.3471 94.5128 27.6395 95.1253 30.9635 95.1614C36.6071 95.4874 38.0937 95.4874 52.2728 95.4874C66.574 95.4874 68.0548 95.4175 73.5759 95.1614C76.9014 95.1212 80.1948 94.5087 83.3121 93.3508C87.8852 91.5775 91.5028 87.9675 93.2815 83.4015C94.4441 80.2537 95.0568 76.9296 95.0947 73.5745L95.1588 73.5745C95.4095 68.009 95.4095 66.5245 95.4095 52.3021C95.4095 38.0797 95.3454 36.5835 95.0947 31.0238C95.0422 27.7081 94.4289 24.425 93.2815 21.3132C91.5069 16.7407 87.8887 13.1238 83.3121 11.3465C80.1953 10.1865 76.9014 9.57394 73.5759 9.53593C67.9382 9.21574 66.4632 9.21573 52.2728 9.21573ZM52.471 79.2856C41.5682 79.2926 31.7356 72.7403 27.558 62.6851C23.3804 52.6292 25.681 41.0505 33.3867 33.3494C41.0924 25.648 52.6855 23.3408 62.7593 27.5036C72.8331 31.6665 79.403 41.4795 79.406 52.3661C79.3896 67.2178 67.3435 79.2565 52.471 79.2856ZM52.471 34.8894C42.8111 34.8894 34.9805 42.7091 34.9805 52.3545C34.9805 62.0004 42.8111 69.8195 52.471 69.8195C62.1303 69.8195 69.9612 62.0004 69.9612 52.3545C69.9385 42.7178 62.1209 34.9118 52.471 34.8894ZM80.4554 30.7386C76.9888 30.7257 74.1875 27.9126 74.1939 24.4512C74.2003 20.9897 77.0121 18.187 80.4787 18.187C83.9447 18.187 86.7565 20.9896 86.7635 24.4511C86.7647 26.1212 86.1 27.7231 84.9165 28.9028C83.733 30.0827 82.1274 30.7432 80.4554 30.7386Z" fill="white"/>
</svg>
