<svg width="26" height="26" viewBox="0 0 26 26" fill="none" xmlns="http://www.w3.org/2000/svg">
<path d="M13.0575 25.036C9.64272 25.036 9.24016 25.018 7.90757 24.9597C6.86839 24.9255 5.84267 24.7143 4.87455 24.335C3.19952 23.6832 1.87503 22.3582 1.22381 20.6829C0.859163 19.7112 0.662482 18.6847 0.642187 17.6471C0.564453 16.3173 0.564453 15.8814 0.564453 12.493C0.564453 9.06855 0.582499 8.66877 0.642187 7.34312C0.662926 6.30694 0.859594 5.28179 1.22381 4.31148C1.87432 2.63399 3.20097 1.30785 4.87871 0.657966C5.84852 0.291795 6.87392 0.0945998 7.91035 0.074958C9.236 -1.38352e-07 9.67187 8.69866e-10 13.0575 1.19324e-09C16.5001 1.52204e-09 16.8957 0.0180453 18.2074 0.074958C19.2465 0.0947664 20.2746 0.291934 21.2474 0.657966C22.9247 1.30859 24.251 2.63447 24.9023 4.31148C25.2731 5.29593 25.4708 6.3371 25.4867 7.38893C25.5645 8.71874 25.5645 9.15323 25.5645 12.5402C25.5645 15.9272 25.545 16.3714 25.4867 17.686C25.466 18.7245 25.2688 19.752 24.9037 20.7245C24.2507 22.401 22.9243 23.7265 21.2474 24.3781C20.276 24.742 19.2501 24.9387 18.213 24.9597C16.8874 25.036 16.4529 25.036 13.0575 25.036ZM13.0104 2.19738C9.61495 2.19738 9.26237 2.21404 7.93673 2.27373C7.14549 2.28422 6.36188 2.43024 5.61996 2.70543C4.52441 3.12466 3.65749 3.98805 3.2338 5.08188C2.95648 5.83188 2.81043 6.62405 2.80209 7.42363C2.72852 8.76871 2.72852 9.1213 2.72852 12.493C2.72852 15.8245 2.74102 16.2284 2.80209 17.5652C2.81453 18.3567 2.96048 19.1404 3.2338 19.8833C3.65811 20.9765 4.52488 21.8392 5.61996 22.2584C6.36138 22.5355 7.14529 22.6815 7.93673 22.6901C9.28042 22.7678 9.63439 22.7678 13.0104 22.7678C16.4154 22.7678 16.768 22.7512 18.0825 22.6901C18.8743 22.6805 19.6584 22.5345 20.4007 22.2584C21.4895 21.8356 22.3508 20.9748 22.7743 19.8861C23.0511 19.1356 23.197 18.343 23.206 17.543L23.2213 17.543C23.281 16.2159 23.281 15.862 23.281 12.4708C23.281 9.07967 23.2657 8.72291 23.206 7.39726C23.1936 6.60667 23.0475 5.82386 22.7743 5.08188C22.3518 3.99163 21.4903 3.12922 20.4007 2.70543C19.6586 2.42885 18.8743 2.28279 18.0825 2.27373C16.7402 2.19738 16.389 2.19738 13.0104 2.19738ZM13.0575 18.9047C10.4616 18.9064 8.12054 17.3441 7.12589 14.9465C6.13122 12.5488 6.67897 9.78801 8.51367 7.95177C10.3484 6.11547 13.1086 5.56534 15.5071 6.55792C17.9057 7.55051 19.4699 9.89031 19.4706 12.4861C19.4667 16.0273 16.5986 18.8978 13.0575 18.9047ZM13.0575 8.31897C10.7576 8.31897 8.89314 10.1835 8.89314 12.4833C8.89314 14.7833 10.7576 16.6476 13.0575 16.6476C15.3574 16.6476 17.2219 14.7833 17.2219 12.4833C17.2165 10.1856 15.3552 8.32431 13.0575 8.31897ZM19.7205 7.32926C18.8951 7.32619 18.2281 6.65544 18.2297 5.83009C18.2312 5.00475 18.9007 4.33648 19.726 4.33648C20.5513 4.33648 21.2208 5.00473 21.2224 5.83008C21.2227 6.22829 21.0645 6.61024 20.7827 6.89154C20.5009 7.17285 20.1186 7.33035 19.7205 7.32926Z" fill="white"/>
</svg>
