<svg width="400" height="400" viewBox="0 0 400 400" fill="none" xmlns="http://www.w3.org/2000/svg">
<path d="M400 200C400 310.457 310.457 400 200 400C89.5431 400 0 310.457 0 200C0 89.5431 89.5431 0 200 0C310.457 0 400 89.5431 400 200Z" fill="#181823"/>
<path d="M157.611 136.675C187.522 116.733 227.397 120.668 252.935 146.042C267.203 160.326 275.134 179.656 275.059 199.825C274.915 235.781 249.377 266.676 214.103 273.633C178.753 280.583 143.411 261.615 129.731 228.31C115.984 195.066 127.624 156.693 157.611 136.675ZM225.962 171.196C224.987 170.743 223.847 170.592 222.797 170.969L185.476 182.753C184.191 183.131 183.21 184.188 182.839 185.473L170.973 222.788C170.746 223.544 170.746 224.375 170.973 225.13C171.275 226.188 172.038 227.094 173.02 227.623C174.07 228.227 175.21 228.31 176.26 228.001L213.582 216.217C214.866 215.839 215.848 214.857 216.293 213.573L228.001 176.257C228.311 175.434 228.311 174.52 228.001 173.689C227.707 172.631 226.944 171.725 225.962 171.196Z" fill="#3CC74E"/>
</svg>
