<svg width="30" height="28" viewBox="0 0 30 28" fill="none" xmlns="http://www.w3.org/2000/svg">
<path d="M20.1035 8.14676C19.5643 8.14646 19.0261 8.19014 18.494 8.27738C18.3047 6.31603 17.5054 4.46402 16.2092 2.98334C14.9129 1.50267 13.1853 0.468284 11.2708 0.0265295C11.0989 -0.0130922 10.9197 -0.00826541 10.7501 0.0405573C10.5806 0.0893799 10.4261 0.180599 10.3013 0.305661C10.1765 0.430723 10.0854 0.585531 10.0366 0.755568C9.9877 0.925605 9.9827 1.1053 10.022 1.27781C10.145 1.81725 10.207 2.36886 10.2069 2.92223C10.2049 4.86148 9.43592 6.72071 8.06882 8.09196C6.70171 9.46322 4.84812 10.2345 2.91475 10.2366C2.36306 10.2367 1.81312 10.1744 1.27531 10.0511C1.10324 10.0114 0.923925 10.0162 0.754217 10.0651C0.584508 10.114 0.429971 10.2053 0.305119 10.3306C0.180267 10.4558 0.0891978 10.6108 0.0404647 10.781C-0.00826842 10.9512 -0.0130664 11.1311 0.0265216 11.3037C0.306381 12.5141 0.821905 13.6572 1.54348 14.6672C2.26506 15.6772 3.17847 16.5342 4.23125 17.1891C3.49083 18.2009 3.04439 19.3986 2.94147 20.6495C2.83856 21.9003 3.08318 23.1553 3.64821 24.2751C4.21324 25.3949 5.07657 26.3358 6.14238 26.9933C7.20818 27.6509 8.43479 27.9993 9.68606 28H20.1035C22.7282 28 25.2454 26.9542 27.1014 25.0926C28.9573 23.231 30 20.7061 30 18.0734C30 15.4407 28.9573 12.9158 27.1014 11.0542C25.2454 9.1926 22.7282 8.14676 20.1035 8.14676ZM2.57228 12.3264H2.91475C5.40048 12.3236 7.78362 11.3319 9.5413 9.56892C11.299 7.8059 12.2877 5.41552 12.2904 2.92223V2.57349C13.4909 3.13719 14.5142 4.02041 15.2489 5.12699C15.9836 6.23358 16.4016 7.52112 16.4574 8.84946C15.1855 9.35709 14.0317 10.1226 13.0682 11.0979C12.1047 12.0733 11.3523 13.2377 10.858 14.5181C10.471 14.4503 10.0789 14.4163 9.68606 14.4162C8.28568 14.416 6.9201 14.8538 5.77953 15.6688C4.37845 14.9316 3.25319 13.7589 2.57228 12.3264Z" fill="white"/>
</svg>
