<svg width="25" height="26" viewBox="0 0 25 26" fill="none" xmlns="http://www.w3.org/2000/svg">
<path d="M5.62501 25.291H0.312495V8.57227H5.62501V25.291ZM2.96875 6.22852C1.25 6.22852 0 4.97852 0 3.25977C0 1.54102 1.40625 0.291016 2.96875 0.291016C4.6875 0.291016 5.9375 1.54102 5.9375 3.25977C5.9375 4.97852 4.6875 6.22852 2.96875 6.22852ZM25 25.291H19.6875V16.2285C19.6875 13.5723 18.5937 12.791 17.0312 12.791C15.4687 12.791 13.9062 14.041 13.9062 16.3848V25.291H8.59375V8.57227H13.5937V10.916C14.0625 9.82227 15.9375 8.10352 18.5937 8.10352C21.5625 8.10352 24.6875 9.82226 24.6875 14.9785V25.291H25Z" fill="#2867B2"/>
</svg>
