<svg width="105" height="105" viewBox="0 0 105 105" fill="none" xmlns="http://www.w3.org/2000/svg">
<path d="M23.625 105H1.31248V34.7813H23.625V105ZM12.4688 24.9375C5.25001 24.9375 0 19.6875 0 12.4687C0 5.25 5.90626 0 12.4688 0C19.6875 0 24.9375 5.25 24.9375 12.4687C24.9375 19.6875 19.6875 24.9375 12.4688 24.9375ZM105 105H82.6875V66.9375C82.6875 55.7813 78.0937 52.5 71.5312 52.5C64.9687 52.5 58.4062 57.75 58.4062 67.5937V105H36.0938V34.7813H57.0937V44.625C59.0625 40.0313 66.9375 32.8125 78.0937 32.8125C90.5625 32.8125 103.688 40.0312 103.688 61.6875V105H105Z" fill="white"/>
</svg>
