<svg width="30" height="30" viewBox="0 0 30 30" fill="none" xmlns="http://www.w3.org/2000/svg">
<path fill-rule="evenodd" clip-rule="evenodd" d="M5.29883 12.9892C5.31684 7.68842 9.62853 3.40593 14.9293 3.42388C20.23 3.44195 24.5125 7.75364 24.4945 13.0544V13.1631C24.4293 16.6087 22.5054 19.7935 20.1467 22.2826C18.7977 23.6834 17.2913 24.9235 15.6575 25.9783C15.2207 26.3562 14.5727 26.3562 14.1358 25.9783C11.7002 24.393 9.5625 22.3914 7.82057 20.0652C6.26802 18.0368 5.38653 15.5747 5.29883 13.0218V12.9892Z" stroke="white" stroke-width="1.5" stroke-linecap="round" stroke-linejoin="round"/>
<path d="M14.8966 16.2502C16.5955 16.2502 17.9728 14.8729 17.9728 13.1739C17.9728 11.4749 16.5955 10.0977 14.8966 10.0977C13.1976 10.0977 11.8203 11.4749 11.8203 13.1739C11.8203 14.8729 13.1976 16.2502 14.8966 16.2502Z" stroke="white" stroke-width="1.5" stroke-linecap="round" stroke-linejoin="round"/>
</svg>
