<svg width="20" height="18" viewBox="0 0 20 18" fill="none" xmlns="http://www.w3.org/2000/svg">
<path d="M14.939 0C16.28 0 17.57 0.51037 18.519 1.42615C19.469 2.34 20 3.57259 20 4.86296V12.4704C20 15.157 17.73 17.3333 14.939 17.3333H5.06C2.269 17.3333 0 15.157 0 12.4704V4.86296C0 2.1763 2.259 0 5.06 0H14.939ZM16.07 5.00741C15.86 4.99681 15.66 5.06519 15.509 5.2L11 8.66667C10.42 9.12985 9.589 9.12985 9 8.66667L4.5 5.2C4.189 4.97852 3.759 5.00741 3.5 5.26741C3.23 5.52741 3.2 5.94148 3.429 6.23037L3.56 6.35556L8.11 9.77407C8.67 10.1978 9.349 10.4289 10.06 10.4289C10.769 10.4289 11.46 10.1978 12.019 9.77407L16.53 6.29778L16.61 6.22074C16.849 5.94148 16.849 5.53704 16.599 5.25778C16.46 5.1143 16.269 5.02667 16.07 5.00741Z" fill="#8491A0"/>
</svg>
