<svg width="10" height="10" viewBox="0 0 10 10" fill="none" xmlns="http://www.w3.org/2000/svg">
<path d="M9.97663 6.84723C10.09 6.57723 9.76608 6.34723 9.49441 6.46723C8.9514 6.70559 8.36467 6.8282 7.77164 6.82723C5.44665 6.82723 3.56221 4.98057 3.56221 2.70225C3.56136 1.933 3.7799 1.17946 4.19221 0.530031C4.34999 0.281143 4.16054 -0.0633003 3.87165 0.0100328C1.64444 0.578364 0 2.5628 0 4.92335C0 7.72723 2.31944 10 5.18109 10C7.34775 10 9.2033 8.69723 9.97663 6.84723Z" fill="#5221E6"/>
<path d="M7.00628 0.0571073C6.71183 -0.139559 6.36072 0.211551 6.55683 0.505995L6.90683 1.03099C7.04881 1.24386 7.12458 1.49401 7.12458 1.74988C7.12458 2.00575 7.04881 2.2559 6.90683 2.46877L6.55683 2.99376C6.36072 3.28821 6.71239 3.63932 7.00683 3.44265L7.53128 3.09265C7.74414 2.95067 7.99429 2.8749 8.25016 2.8749C8.50604 2.8749 8.75618 2.95067 8.96905 3.09265L9.49405 3.44265C9.78849 3.63932 10.1396 3.28821 9.94293 2.99376L9.59294 2.46877C9.45095 2.2559 9.37518 2.00575 9.37518 1.74988C9.37518 1.49401 9.45095 1.24386 9.59294 1.03099L9.94293 0.505995C10.1396 0.211551 9.78849 -0.139559 9.49349 0.0571073L8.96905 0.407106C8.75618 0.549088 8.50604 0.624856 8.25016 0.624856C7.99429 0.624856 7.74414 0.549088 7.53128 0.407106L7.00628 0.0571073Z" fill="#5221E6"/>
</svg>
