<svg width="50" height="61" viewBox="0 0 50 61" fill="none" xmlns="http://www.w3.org/2000/svg">
<path d="M39.8731 31.3974L44.628 36.1741C44.7086 36.2555 44.77 36.3538 44.8077 36.4618C44.8455 36.5699 44.8587 36.685 44.8463 36.7989L44.1179 43.1306C44.1041 43.2443 44.0652 43.3536 44.0038 43.4503C43.9425 43.5471 43.8603 43.6289 43.7632 43.6898L38.359 47.0671C38.2624 47.1276 38.1534 47.1657 38.0401 47.1784C37.9267 47.1912 37.812 47.1783 37.7043 47.1408L31.7027 45.0211C31.5949 44.9833 31.497 44.9218 31.4163 44.841C31.3355 44.7603 31.274 44.6624 31.2362 44.5546L29.1465 38.5339C29.1089 38.4257 29.0961 38.3106 29.1088 38.1968C29.1215 38.083 29.1596 37.9736 29.2202 37.8764L32.6248 32.4886C32.6844 32.3936 32.7642 32.3128 32.8585 32.252C32.9527 32.1912 33.0592 32.1518 33.1704 32.1367L39.8704 31.3974H39.8731ZM41.6818 26.2578L30.2841 27.5154C30.173 27.5306 30.0665 27.57 29.9722 27.6308C29.878 27.6916 29.7982 27.7723 29.7385 27.8673L23.7942 37.2544C23.7334 37.3515 23.6952 37.461 23.6825 37.5748C23.6697 37.6886 23.6827 37.8038 23.7205 37.9119L27.3624 48.3984C27.4 48.5065 27.4615 48.6049 27.5422 48.6861C27.623 48.7673 27.721 48.8294 27.8289 48.8676L38.3018 52.5586C38.4099 52.5962 38.5251 52.6091 38.6388 52.5963C38.7526 52.5836 38.8621 52.5455 38.9592 52.4849L48.3736 46.6006C48.4686 46.541 48.5493 46.4612 48.6101 46.3669C48.671 46.2726 48.7103 46.1662 48.7255 46.055L49.994 35.0229C50.0064 34.9095 49.9932 34.7948 49.9554 34.6872C49.9177 34.5795 49.8563 34.4817 49.7758 34.4009L41.6845 26.2715L41.6818 26.2578Z" fill="#52581C"/>
<path d="M11.954 39.3803L18.3103 41.6227C18.4183 41.66 18.5165 41.7214 18.5973 41.8022C18.6782 41.883 18.7395 41.9812 18.7768 42.0892L20.8692 48.11C20.9071 48.2182 20.92 48.3336 20.9068 48.4475C20.8935 48.5614 20.8546 48.6708 20.7928 48.7674L17.3909 54.1552C17.3313 54.2502 17.2515 54.331 17.1572 54.3918C17.063 54.4526 16.9565 54.492 16.8453 54.5072L10.5082 55.2055C10.3948 55.2179 10.28 55.2047 10.1724 55.167C10.0648 55.1292 9.96698 55.0678 9.88618 54.9873L5.37677 50.4697C5.29572 50.3887 5.23399 50.2905 5.19621 50.1823C5.15842 50.0741 5.14554 49.9588 5.15853 49.845L5.88691 43.5133C5.90015 43.3997 5.93863 43.2905 5.99952 43.1938C6.06041 43.097 6.14217 43.0151 6.23882 42.954L11.954 39.3803ZM11.3566 33.9652L1.64212 40.0432C1.54534 40.1042 1.46347 40.186 1.40257 40.2828C1.34166 40.3796 1.30326 40.4889 1.29021 40.6025L0.00531292 51.6346C-0.00820957 51.7478 0.0041627 51.8626 0.0414961 51.9703C0.0788294 52.0781 0.140149 52.176 0.220826 52.2565L8.06114 60.1269C8.14159 60.2079 8.23935 60.2696 8.34708 60.3074C8.45481 60.3452 8.5697 60.3581 8.68312 60.3451L19.7207 59.1284C19.8318 59.1132 19.9383 59.0739 20.0326 59.0131C20.1268 58.9523 20.2066 58.8715 20.2663 58.7765L26.2079 49.3785C26.2689 49.2816 26.3075 49.1722 26.3207 49.0584C26.3339 48.9447 26.3215 48.8294 26.2843 48.721L22.6478 38.2455C22.6102 38.1373 22.5488 38.0389 22.468 37.9577C22.3873 37.8765 22.2893 37.8145 22.1813 37.7762L11.3648 33.957L11.3566 33.9652Z" fill="#52581C"/>
<path d="M33.5364 5.41783L39.8927 7.65753C40.0009 7.69542 40.099 7.75732 40.1798 7.83859C40.2606 7.91986 40.3219 8.01838 40.3592 8.12675L42.4516 14.1475C42.4887 14.2554 42.5012 14.3702 42.4879 14.4835C42.4747 14.5969 42.4362 14.7058 42.3752 14.8022L38.9734 20.1873C38.912 20.284 38.8296 20.3657 38.7323 20.4261C38.635 20.4866 38.5253 20.5243 38.4114 20.5365L32.0769 21.2376C31.9633 21.2496 31.8485 21.236 31.7409 21.1978C31.6332 21.1595 31.5355 21.0976 31.455 21.0166L26.9565 16.5045C26.8751 16.4237 26.8131 16.3255 26.7753 16.2173C26.7375 16.109 26.7248 15.9936 26.7382 15.8798L27.4693 9.54805C27.4845 9.43589 27.5247 9.32859 27.5871 9.23413C27.6494 9.13966 27.7323 9.06047 27.8294 9.00244L33.5583 5.42875L33.5364 5.41783ZM32.939 0L23.2136 6.08074C23.1163 6.14137 23.0339 6.22312 22.9726 6.31993C22.9112 6.41674 22.8723 6.52613 22.859 6.63998L21.5905 17.6693C21.5781 17.7831 21.5912 17.8983 21.629 18.0064C21.6667 18.1144 21.7281 18.2127 21.8087 18.2941L29.6408 26.1616C29.7219 26.2427 29.8201 26.3046 29.9282 26.3428C30.0363 26.3811 30.1515 26.3947 30.2655 26.3826L41.3004 25.1632C41.4133 25.1523 41.5224 25.1162 41.6197 25.0577C41.7169 24.9992 41.7998 24.9196 41.8623 24.8249L47.7903 15.4351C47.851 15.3385 47.8892 15.2295 47.9019 15.1162C47.9147 15.0028 47.9017 14.888 47.864 14.7804L44.2221 4.28025C44.1836 4.17349 44.1217 4.07668 44.041 3.99691C43.9603 3.91714 43.8628 3.85643 43.7556 3.81922L32.939 0Z" fill="#52581C"/>
</svg>
