<svg width="49" height="60" viewBox="0 0 49 60" fill="none" xmlns="http://www.w3.org/2000/svg">
<path d="M24.0713 0.000256392L22.9859 2.83148C20.5289 9.22921 15.1237 13.5525 10.0716 17.9284C5.01943 22.3043 0.229137 26.8606 0.00847278 33.7742C-0.22475 41.0721 4.38909 45.7442 9.85944 46.8129C14.8038 47.7791 20.4653 45.9473 24.0594 41.1947C27.6154 46.3504 33.2021 48.0619 38.063 46.8529C43.4122 45.5225 47.915 40.7135 48.1305 33.8501C48.2453 30.1954 47.1051 27.1379 45.3033 24.5358C43.5016 21.9336 41.0668 19.7509 38.5078 17.6078C33.3897 13.322 27.8052 9.19743 25.2128 2.80713L24.0715 0L24.0713 0.000256392ZM24.1315 6.09519C27.2927 11.878 32.5248 15.7241 36.9698 19.4462C39.3553 21.4437 41.5193 23.4086 43.0848 25.553C41.1309 23.5873 38.3926 22.2379 35.0356 21.9932C36.8604 22.9457 37.8605 24.6496 38.3193 27.2791C35.3822 24.4499 32.5169 24.2057 29.3214 26.8505C32.5583 26.1751 35.0902 29.8282 32.9174 32.4288C30.709 35.0725 26.3429 32.49 26.1817 28.7207C23.9501 30.0957 24.3262 34.5603 20.8198 34.0669C21.7086 29.9727 20.6061 27.2849 16.9593 25.7814C17.5277 26.7365 17.6679 28.019 17.3878 29.2092C16.8662 31.4207 14.8677 32.828 12.8867 32.2087C10.575 31.4971 9.84663 29.041 10.5321 25.9937C10.9819 23.9949 12.1577 22.4745 13.6034 21.4926C11.2622 21.5964 9.20616 22.358 7.50863 23.5588C8.75163 22.279 10.1548 21.0258 11.6413 19.7385C16.0502 15.9198 21.1147 11.9011 24.1315 6.09519ZM27.2989 20.0027C24.1965 20.0582 22.1487 22.8783 23.1544 27.0827C24.9548 22.2064 28.8217 21.7365 33.5901 23.1864C31.3999 20.9324 29.1604 19.9696 27.299 20.0028L27.2989 20.0027ZM24.2636 44.7188L16.5711 60H31.9561L24.2636 44.7188Z" fill="url(#paint0_linear_707_3853)"/>
<defs>
<linearGradient id="paint0_linear_707_3853" x1="20.5673" y1="17.2677" x2="27.9997" y2="63.6559" gradientUnits="userSpaceOnUse">
<stop stop-color="#BA2AFE"/>
<stop offset="1" stop-color="#FED42A"/>
</linearGradient>
</defs>
</svg>
