<svg width="72" height="50" viewBox="0 0 72 50" fill="none" xmlns="http://www.w3.org/2000/svg">
<path d="M52.9046 49.566C46.6218 43.5906 40.5557 37.3701 34.4901 31.1513L33.333 29.9651L14.2317 49.323L12.0049 47.1332L31.1506 27.7305C29.2085 25.7441 27.2624 23.7625 25.3046 21.7936L23.0446 19.5315C20.7984 17.2953 18.5336 15.0802 16.2397 12.8972C15.5417 12.4006 14.7808 12.0597 13.9919 11.8581C12.3115 11.4283 10.4964 11.626 8.84569 12.2744C7.17319 12.931 5.68159 14.042 4.66955 15.4249C4.13797 16.1517 3.74126 16.9472 3.52825 17.7788L3.53398 17.7804C3.18431 19.149 3.32543 20.6566 3.82004 22.0738C4.35621 23.6109 5.29571 25.026 6.4699 26.047C6.80376 26.337 7.16363 26.5818 7.54147 26.7799C9.29645 27.6994 11.5908 27.7501 13.9649 27.008C15.5828 26.5026 17.2228 25.6335 18.7536 24.4219L20.9268 22.1962C23.0976 24.2689 24.5864 25.7133 26.7158 27.8329L24.5507 30.0892C22.8386 28.3904 20.8401 26.4253 19.0698 24.7256L19.0625 24.7356C19.7136 25.3589 20.3627 25.9845 21.0095 26.6125C19.0786 28.2058 16.9763 29.3437 14.895 29.9937C11.7462 30.9781 8.60845 30.8598 6.09792 29.5446C5.49661 29.2296 4.93648 28.8502 4.42696 28.4079C2.84395 27.0314 1.58358 25.1418 0.871242 23.101C0.181847 21.1258 -0.00643472 18.9904 0.499776 17.0099H0.50615C0.824205 15.7671 1.3939 14.6094 2.14907 13.5773C3.51091 11.7168 5.49547 10.2313 7.70745 9.36282C9.94046 8.48552 12.4246 8.2256 14.7623 8.82372C15.9486 9.12699 17.0994 9.65283 18.1611 10.4301L18.3138 10.5586C24.5966 16.5339 30.6629 22.7543 36.7285 28.9732C42.7661 35.1635 48.8042 41.3551 55.0575 47.3022L52.9046 49.566Z" fill="#D1AE6C"/>
<path d="M18.5218 0.00390625C24.8047 5.97913 30.8709 12.1997 36.9365 18.4186L38.0935 19.6048L57.1948 0.246875L59.4215 2.43667L40.2759 21.8394C42.218 23.8256 44.1642 25.8073 46.1219 27.7761L48.3819 30.0384C50.6282 32.2744 52.8929 34.4897 55.1867 36.6725C55.8848 37.1693 56.6457 37.51 57.4347 37.7118C59.1149 38.1415 60.9301 37.9438 62.5809 37.2955C64.2533 36.6387 65.745 35.5279 66.7569 34.145C67.2885 33.418 67.6853 32.6227 67.8982 31.7909L67.8925 31.7895C68.2422 30.4208 68.1011 28.9132 67.6066 27.4961C67.0703 25.959 66.1308 24.5438 64.9566 23.5229C64.6227 23.2329 64.2628 22.988 63.885 22.79C62.1302 21.8705 59.8358 21.8198 57.4616 22.5618C55.8436 23.0673 54.2036 23.9364 52.6729 25.1478L50.4997 27.3737C48.3289 25.3008 46.8401 23.8566 44.7108 21.7368L46.8759 19.4806C48.588 21.1795 50.5865 23.1444 52.3568 24.8443L52.3642 24.8342C51.713 24.211 51.064 23.5853 50.4171 22.9574C52.3481 21.3641 54.4503 20.2262 56.5316 19.5762C59.6804 18.5918 62.8183 18.71 65.3288 20.0253C65.93 20.3402 66.4903 20.7197 66.9997 21.162C68.5828 22.5385 69.843 24.4281 70.5554 26.4689C71.2449 28.4441 71.433 30.5795 70.9268 32.56H70.9205C70.6024 33.8027 70.0327 34.9605 69.2775 35.9925C67.9158 37.8529 65.9313 39.3384 63.7192 40.2071C61.4863 41.0842 59.0021 41.3443 56.6643 40.746C55.478 40.4429 54.3272 39.917 53.2655 39.1398L53.1128 39.0113C46.8301 33.036 40.7638 26.8155 34.6983 20.5966C28.6605 14.4062 22.6224 8.21482 16.3691 2.26751L18.522 0.00390625H18.5218Z" fill="#D1AE6C"/>
</svg>
