<svg width="32" height="32" viewBox="0 0 32 32" fill="none" xmlns="http://www.w3.org/2000/svg">
<path d="M27.6695 15.395C26.41 14.704 21.999 13.2745 18.329 12.205L20.993 9.4535L21.282 9.753L21.9185 9.096L21.6295 8.796L23.4715 6.8925L23.119 6.5275L24.961 4.625L23.389 3L21.5465 4.903L21.192 4.538L19.3485 6.441L18.6585 5.729L14.403 10.13L14.9395 10.6865L18.55 6.9535L18.708 7.1035L14.8105 11.129C11.293 9.516 9.96 11.2965 8.1375 13.7565C7.14 15.1025 5.898 16.7785 3.9655 18.4105C3.3335 18.943 2.686 19.86 2.7655 20.837C2.8045 21.322 3.0525 22.009 3.9435 22.612L2.0465 26.1305L1 27.2135L1.518 27.749L2.5695 26.6635L5.006 25.265C5.4605 25.8715 6.1615 26.302 6.877 26.3725C8.5975 26.5445 10.0555 27.185 11.466 27.8045C12.8645 28.4195 14.185 29 15.564 29C17.3825 29 18.8025 28.7535 20.305 28.492C22.2555 28.1535 24.4665 27.77 28.2005 27.77C29.5895 27.77 30.5685 26.635 30.8865 24.658C31.448 21.18 29.854 16.592 27.6695 15.395ZM13.0035 20.6895C12.524 20.4685 12.068 20.259 11.692 20.121C11.6645 20.111 11.634 20.1025 11.6065 20.0925C11.8225 19.754 12.2615 19.1805 13.1275 18.3705C13.062 19.3295 13.0225 20.216 13.0035 20.6895ZM21.1925 5.4355L22.6035 6.8925L21.1955 8.3465L19.7845 6.8895L21.1925 5.4355ZM19.147 7.548L20.558 9.005L10.1075 19.799C8.735 19.7115 7.087 20.0855 5.6685 21.4705L19.147 7.548ZM4.618 19.1835C6.6605 17.4995 7.921 15.748 8.95 14.36C10.722 11.9685 11.648 10.576 14.272 11.686L5.007 21.2565C4.5485 20.986 3.462 20.1365 4.618 19.1835ZM2.9825 25.7025L4.462 22.9485L4.5895 23.08C4.42983 23.6075 4.45829 24.1741 4.67 24.683L2.9825 25.7025ZM30.173 24.361C30.0375 25.205 29.0185 26.354 27.867 26.354C24.0455 26.354 22.122 26.917 20.127 27.24C16.265 27.8645 13.3985 27.07 12.1505 26.2745C9.0225 24.2815 7.317 25.3095 5.8795 24.202C5.417 23.8455 5.4585 22.9745 5.911 22.43C7.911 20.029 10.515 20.4315 11.36 20.8325C13.7925 21.9875 16.0045 22.1575 16.596 22.0285C17.1885 21.9075 17.7125 21.5855 18.1215 21.182C17.6565 21.5235 17.1135 21.7485 16.5595 21.778C16.007 21.8165 14.416 21.32 14.1465 21.2045C14.049 20.726 13.892 19.873 13.8775 19.2475C14.8745 20.264 15.9705 20.522 15.9705 20.522L13.838 17.71C13.838 17.71 16.958 14.2745 19.034 13.22C22.529 14.246 26.202 15.397 27.259 15.977C29.058 16.9625 30.658 21.355 30.173 24.361Z" fill="black"/>
</svg>
