<svg width="32" height="29" viewBox="0 0 32 29" fill="none" xmlns="http://www.w3.org/2000/svg">
<path d="M31.7668 6.69395C31.3008 6.20936 30.7075 6.57688 30.4228 6.75262C25.7473 9.63248 21.1918 14.1946 18.1931 17.514L17.464 18.3213C15.9806 19.9951 14.8375 21.4025 14.2113 22.1924C14.1565 22.1888 14.1017 22.1831 14.0466 22.1831C13.2973 22.1831 12.5796 22.5188 11.9705 23.1541C10.4574 24.7342 8.92016 24.9624 6.56926 25.1509L5.41797 25.2431L6.2518 26.0756C8.01147 27.833 10.3462 28.8823 12.4975 28.8823C13.9663 28.8823 15.2542 28.3825 16.1237 27.4751C16.7316 26.8408 17.0528 26.0926 17.0525 25.3123C17.0525 25.1808 17.0396 25.0508 17.0215 24.9218C17.898 24.162 19.1624 23.031 20.6351 21.6098L21.4057 20.8526C24.5865 17.7235 28.9574 12.97 31.7148 8.09509C31.8827 7.79762 32.2322 7.17861 31.7672 6.69377L31.7668 6.69395ZM15.393 26.7154C14.7085 27.4298 13.7072 27.8068 12.4969 27.8068C10.956 27.8068 9.29754 27.1845 7.88587 26.1047C9.73678 25.8816 11.2537 25.4254 12.7003 23.9145C13.5218 23.0575 14.5681 23.0573 15.39 23.9127C15.8015 24.3407 16.019 24.8251 16.0192 25.3135C16.0205 25.8023 15.8037 26.2871 15.393 26.7154L15.393 26.7154ZM16.6452 23.8471C16.5044 23.6042 16.3305 23.3703 16.1202 23.1514C15.8635 22.8841 15.5865 22.6735 15.2968 22.5153C15.9071 21.7547 16.8337 20.631 17.9807 19.3263C18.3441 19.5031 18.7067 19.7595 18.9772 20.0417C19.2488 20.3234 19.4956 20.7002 19.666 21.0765C18.4741 22.2181 17.4331 23.1576 16.6452 23.8471L16.6452 23.8471ZM20.6968 20.0702L20.4453 20.3172C20.2397 19.9363 19.9879 19.5729 19.7064 19.2809C19.4254 18.9878 19.0757 18.7257 18.7086 18.5125L18.9443 18.2518C21.8307 15.056 26.1753 10.696 30.64 7.87151C27.9359 12.5251 23.7582 17.0588 20.6966 20.0706L20.6968 20.0702Z" fill="black"/>
<path d="M4.58789 7.98652C4.58789 9.46922 5.7456 10.6762 7.16895 10.6762C8.5923 10.6762 9.75001 9.46975 9.75001 7.98652C9.75001 6.50328 8.5923 5.29688 7.16895 5.29688C5.7456 5.29713 4.58789 6.50328 4.58789 7.98652ZM8.71757 7.98652C8.71757 8.87607 8.02291 9.60002 7.1692 9.60002C6.31556 9.60002 5.62084 8.87614 5.62084 7.98652C5.62084 7.09643 6.3155 6.37301 7.1692 6.37301C8.02285 6.37301 8.71757 7.09669 8.71757 7.98652Z" fill="black"/>
<path d="M20.6025 10.6762C22.0259 10.6762 23.1836 9.46975 23.1836 7.98652C23.1836 6.50328 22.0259 5.29688 20.6025 5.29688C19.1792 5.29688 18.0215 6.50328 18.0215 7.98652C18.0215 9.46975 19.1792 10.6762 20.6025 10.6762ZM20.6025 6.37301C21.4562 6.37301 22.1509 7.09689 22.1509 7.98652C22.1509 8.87607 21.4563 9.60002 20.6025 9.60002C19.7484 9.60002 19.0542 8.87614 19.0542 7.98652C19.0537 7.09722 19.7484 6.37301 20.6025 6.37301Z" fill="black"/>
<path d="M16.4668 5.56881C16.4668 4.08558 15.3091 2.87891 13.8857 2.87891C12.4629 2.87891 11.3047 4.08531 11.3047 5.56881C11.3047 7.05204 12.4624 8.25845 13.8857 8.25845C15.3088 8.2582 16.4668 7.05178 16.4668 5.56881ZM13.8855 7.18258C13.0318 7.18258 12.3371 6.4587 12.3371 5.56908C12.3371 4.67899 13.0318 3.95504 13.8855 3.95504C14.7396 3.95504 15.4339 4.67893 15.4339 5.56908C15.4344 6.45863 14.7394 7.18258 13.8855 7.18258Z" fill="black"/>
<path d="M13.0387 0.00470387C8.34677 -0.0942819 4.09842 1.37526 1.92637 3.8199C-0.244275 6.26196 -0.192403 8.30606 0.233181 9.59054C1.25152 12.6635 5.55555 15.1148 11.7461 16.1478C12.0383 16.1964 12.2831 16.3487 12.4351 16.5774C12.5909 16.8108 12.6434 17.1121 12.5829 17.4249C12.3493 18.6349 12.2273 19.7594 12.2198 20.7676C12.2176 21.0643 12.447 21.3075 12.7322 21.3093H12.7362C13.0197 21.3093 13.2503 21.071 13.2526 20.7753C13.2593 19.8356 13.3748 18.7799 13.5953 17.6365C13.7116 17.0341 13.6008 16.4396 13.2836 15.9633C12.9696 15.4924 12.4817 15.1805 11.9093 15.0852C6.18762 14.1312 2.08778 11.8913 1.20842 9.23983C0.723057 7.77546 1.21933 6.19841 2.68288 4.55109C4.63131 2.3584 8.68677 0.986054 13.0187 1.08093C18.4405 1.18612 23.3856 3.47416 26.5868 7.35731C26.7723 7.58294 27.0985 7.60827 27.3147 7.41469C27.531 7.22137 27.5556 6.88151 27.3698 6.65613C23.9774 2.54062 18.7534 0.11583 13.0379 0.00480911L13.0387 0.00470387Z" fill="black"/>
</svg>
