<svg width="400" height="400" viewBox="0 0 400 400" fill="none" xmlns="http://www.w3.org/2000/svg">
<path d="M400 200C400 310.457 310.457 400 200 400C89.5431 400 0 310.457 0 200C0 89.5431 89.5431 0 200 0C310.457 0 400 89.5431 400 200Z" fill="#181823"/>
<path d="M208.971 133.441C208.971 130.937 207.977 128.536 206.206 126.765C204.435 124.995 202.034 124 199.53 124C197.026 124 194.625 124.995 192.854 126.765C191.083 128.536 190.089 130.937 190.089 133.441V142.882C190.089 145.386 191.083 147.788 192.854 149.558C194.625 151.329 197.026 152.324 199.53 152.324C202.034 152.324 204.435 151.329 206.206 149.558C207.977 147.788 208.971 145.386 208.971 142.882V133.441ZM252.939 159.471C254.659 157.69 255.611 155.305 255.589 152.83C255.568 150.354 254.575 147.986 252.824 146.236C251.074 144.485 248.706 143.492 246.23 143.471C243.755 143.449 241.37 144.401 239.589 146.121L232.914 152.796C231.194 154.576 230.243 156.961 230.264 159.437C230.286 161.912 231.279 164.28 233.029 166.031C234.78 167.781 237.148 168.774 239.623 168.796C242.099 168.817 244.484 167.866 246.264 166.146L252.939 159.471ZM275.06 199.53C275.06 202.034 274.065 204.435 272.295 206.206C270.524 207.977 268.123 208.971 265.619 208.971H256.177C253.674 208.971 251.272 207.977 249.502 206.206C247.731 204.435 246.736 202.034 246.736 199.53C246.736 197.026 247.731 194.625 249.502 192.854C251.272 191.083 253.674 190.089 256.177 190.089H265.619C268.123 190.089 270.524 191.083 272.295 192.854C274.065 194.625 275.06 197.026 275.06 199.53ZM152.796 166.146C153.667 167.047 154.709 167.767 155.86 168.262C157.012 168.756 158.251 169.017 159.505 169.028C160.758 169.039 162.002 168.8 163.162 168.325C164.322 167.85 165.376 167.149 166.263 166.263C167.149 165.376 167.85 164.322 168.325 163.162C168.8 162.002 169.039 160.758 169.028 159.505C169.017 158.251 168.756 157.012 168.262 155.86C167.767 154.709 167.047 153.667 166.146 152.796L159.471 146.121C157.69 144.401 155.305 143.449 152.83 143.471C150.354 143.492 147.986 144.485 146.236 146.236C144.485 147.986 143.492 150.354 143.471 152.83C143.449 155.305 144.401 157.69 146.121 159.471L152.796 166.146ZM152.324 199.53C152.324 202.034 151.329 204.435 149.558 206.206C147.788 207.977 145.386 208.971 142.882 208.971H133.441C130.937 208.971 128.536 207.977 126.765 206.206C124.995 204.435 124 202.034 124 199.53C124 197.026 124.995 194.625 126.765 192.854C128.536 191.083 130.937 190.089 133.441 190.089H142.882C145.386 190.089 147.788 191.083 149.558 192.854C151.329 194.625 152.324 197.026 152.324 199.53ZM180.647 256.177V246.736H218.412V256.177C218.412 261.185 216.423 265.988 212.882 269.529C209.341 273.071 204.538 275.06 199.53 275.06C194.522 275.06 189.719 273.071 186.178 269.529C182.637 265.988 180.647 261.185 180.647 256.177ZM218.412 237.295C218.554 234.085 220.376 231.196 222.916 229.185C229.078 224.325 233.573 217.666 235.776 210.134C237.979 202.602 237.781 194.57 235.209 187.156C232.637 179.741 227.819 173.312 221.425 168.762C215.031 164.212 207.378 161.767 199.53 161.767C191.682 161.767 184.029 164.212 177.635 168.762C171.241 173.312 166.423 179.741 163.851 187.156C161.279 194.57 161.081 202.602 163.284 210.134C165.487 217.666 169.982 224.325 176.144 229.185C178.693 231.196 180.506 234.085 180.638 237.295H218.422H218.412Z" fill="#5221E6"/>
</svg>
