<svg width="130" height="105" viewBox="0 0 130 105" fill="none" xmlns="http://www.w3.org/2000/svg">
<path d="M114.037 16.5563C119.577 13.2446 123.722 8.02999 125.698 1.88602C120.493 4.97457 114.798 7.15026 108.859 8.31894C100.625 -0.390962 87.5797 -2.51061 77.012 3.14449C66.4444 8.79959 60.9705 20.8294 63.6493 32.5119C42.3275 31.4414 22.4625 21.3696 8.99744 4.80277C1.97029 16.9235 5.5613 32.4179 17.2039 40.2117C12.9938 40.0764 8.87706 38.9363 5.19701 36.8871C5.19701 36.9983 5.19701 37.1096 5.19701 37.2208C5.19942 49.8463 14.0979 60.7223 26.4732 63.2244C22.5681 64.2867 18.4719 64.443 14.4973 63.6817C17.9776 74.4792 27.9288 81.8762 39.2711 82.0968C29.8771 89.4696 18.2759 93.4684 6.33405 93.4486C4.21736 93.4517 2.10235 93.33 -8.89063e-09 93.084C12.1267 100.876 26.2407 105.012 40.6553 104.998C60.7097 105.136 79.9819 97.2299 94.1622 83.0484C108.342 68.867 116.247 49.5935 116.108 29.5396C116.108 28.3902 116.081 27.2469 116.027 26.1099C121.221 22.3564 125.703 17.7066 129.264 12.3789C124.425 14.5236 119.293 15.9317 114.037 16.5563Z" fill="white"/>
</svg>
