<svg width="31" height="26" viewBox="0 0 31 26" fill="none" xmlns="http://www.w3.org/2000/svg">
<path d="M27.1518 4.23299C28.4707 3.44449 29.4576 2.20292 29.9282 0.740068C28.6889 1.47544 27.3328 1.99346 25.9188 2.27172C23.9584 0.197929 20.8523 -0.306749 18.3362 1.0397C15.8201 2.38616 14.5168 5.2504 15.1546 8.03195C10.078 7.77707 5.3482 5.37902 2.14225 1.43453C0.469117 4.32042 1.32412 8.00956 4.09617 9.86523C3.09377 9.83301 2.11359 9.56155 1.23738 9.07365C1.23738 9.10013 1.23738 9.12663 1.23738 9.15311C1.23796 12.1592 3.35663 14.7487 6.30315 15.3444C5.37336 15.5974 4.39808 15.6346 3.45173 15.4533C4.28038 18.0242 6.64972 19.7853 9.35026 19.8379C7.1136 21.5933 4.3514 22.5454 1.50811 22.5407C1.00413 22.5414 0.500559 22.5124 -2.11682e-09 22.4539C2.88731 24.3092 6.24779 25.294 9.67984 25.2906C14.4547 25.3234 19.0433 23.441 22.4196 20.0645C25.7958 16.6879 27.6779 12.099 27.6447 7.32424C27.6447 7.05058 27.6384 6.77838 27.6256 6.50766C28.8622 5.61398 29.9294 4.50688 30.7771 3.23838C29.6251 3.74901 28.4031 4.08427 27.1518 4.23299Z" fill="#1DA1F2"/>
</svg>
