<svg width="31" height="25" viewBox="0 0 31 25" fill="none" xmlns="http://www.w3.org/2000/svg">
<path d="M27.1518 3.94198C28.4707 3.15348 29.4576 1.9119 29.9282 0.449053C28.6889 1.18442 27.3328 1.70244 25.9188 1.9807C23.9584 -0.0930863 20.8523 -0.597765 18.3362 0.748688C15.8201 2.09514 14.5168 4.95938 15.1546 7.74093C10.078 7.48606 5.3482 5.08801 2.14225 1.14352C0.469117 4.0294 1.32412 7.71854 4.09617 9.57422C3.09377 9.542 2.11359 9.27054 1.23738 8.78263C1.23738 8.80912 1.23738 8.83561 1.23738 8.8621C1.23796 11.8682 3.35663 14.4577 6.30315 15.0534C5.37336 15.3063 4.39808 15.3436 3.45173 15.1623C4.28038 17.7332 6.64972 19.4943 9.35026 19.5469C7.1136 21.3023 4.3514 22.2544 1.50811 22.2497C1.00413 22.2504 0.500559 22.2214 -2.11682e-09 22.1629C2.88731 24.0182 6.24779 25.003 9.67984 24.9996C14.4547 25.0324 19.0433 23.15 22.4196 19.7734C25.7958 16.3969 27.6779 11.808 27.6447 7.03323C27.6447 6.75956 27.6384 6.48737 27.6256 6.21664C28.8622 5.32296 29.9294 4.21586 30.7771 2.94736C29.6251 3.458 28.4031 3.79325 27.1518 3.94198Z" fill="white"/>
</svg>
